<?xml version="1.0" encoding="UTF-8"?>
<!DOCTYPE svg PUBLIC "-//W3C//DTD SVG 1.1//EN" "http://www.w3.org/Graphics/SVG/1.1/DTD/svg11.dtd">
<!-- Creator: CorelDRAW X8 -->
<svg xmlns="http://www.w3.org/2000/svg" xml:space="preserve" width="406.4mm" height="228.6mm" version="1.1" style="shape-rendering:geometricPrecision; text-rendering:geometricPrecision; image-rendering:optimizeQuality; fill-rule:evenodd; clip-rule:evenodd"
viewBox="0 0 40640 22860"
 xmlns:xlink="http://www.w3.org/1999/xlink">
 <defs>
  <style type="text/css">
   <![CDATA[
    .str0 {stroke:#ED9818;stroke-width:7.62}
    .fil4 {fill:#313131}
    .fil1 {fill:#E66E83}
    .fil3 {fill:#E88798}
    .fil0 {fill:#ECB33C}
    .fil2 {fill:#ECCBB9}
    .fil5 {fill:#ED9818}
   ]]>
  </style>
 </defs>
 <g id="Layer_x0020_1">
  <metadata id="CorelCorpID_0Corel-Layer"/>
  <path class="fil0" d="M24765 3315c279,64 1085,208 1380,185 38,-452 186,-915 179,-1358l-1343 -209c-60,150 -226,1183 -216,1382z"/>
  <path class="fil1" d="M36790 12056c166,-247 970,-1340 993,-1538l-1799 -118c23,148 705,1558 806,1656z"/>
  <path class="fil2" d="M10971 5804c106,-115 541,-768 578,-936 -68,-146 -186,-173 -313,-264 -118,-84 -214,-150 -360,-236 -323,-190 -257,-205 -840,699 -113,174 64,197 196,294 125,91 604,438 739,443z"/>
  <path class="fil2" d="M32517 5539l779 179c267,45 601,125 868,151 -10,-232 -460,-1533 -544,-1635 -196,107 -770,858 -978,1105 -98,117 -96,39 -125,200z"/>
  <path class="fil0" d="M4657 4763c95,134 689,716 811,789 101,-50 767,-712 808,-825l-797 -796c-105,48 -765,706 -822,832z"/>
  <path class="fil3" d="M22357 13441l718 415c90,49 138,98 279,98 46,-58 81,-133 119,-217l247 -499c82,-149 104,-81 110,-309 -164,-99 -335,-190 -505,-274 -132,-66 -132,-37 -254,-130 -89,-67 -123,-110 -261,-87 -39,73 -58,160 -105,249 -37,70 -80,144 -128,224 -84,139 -215,316 -220,530z"/>
  <path class="fil2" d="M12553 11395c96,74 237,76 357,80 138,4 270,3 407,15 244,21 630,41 877,24 -14,-113 -281,-636 -352,-769 -93,-174 -284,-630 -401,-717 -99,83 -824,1217 -888,1367z"/>
  <path class="fil1" d="M16321 5256l648 798c163,-56 673,-480 828,-566 -37,-183 -494,-802 -617,-869 -89,29 -353,223 -447,297l-412 340z"/>
  <path class="fil3" d="M25615 18068c-34,191 5,880 59,1017 45,27 10,18 85,30l918 -67c16,-139 -20,-940 -72,-996 -43,-48 -110,-46 -212,-36l-778 52z"/>
  <path class="fil0" d="M35262 17926c0,-194 -603,-1270 -678,-1337 -68,41 -590,909 -679,1048 -218,342 58,245 503,263 273,11 555,40 854,26z"/>
  <path class="fil4" d="M7738 18606c-206,-74 -426,-292 -619,-347l-75 152 586 352c-62,211 -259,380 -332,589 73,55 73,62 163,87 26,-94 277,-500 345,-565 139,75 435,282 557,322l92 -138c-107,-74 -451,-296 -560,-331 52,-193 271,-416 345,-620l-161 -79 -341 578z"/>
  <path class="fil0" d="M14927 17489c272,27 691,133 931,100 17,-91 161,-855 78,-931 -128,-89 -719,-136 -918,-130 -29,238 -136,724 -91,961z"/>
  <path class="fil5 str0" d="M17109 19327l916 19 18 -903c-128,-16 -787,-83 -882,-18 -85,58 -73,755 -52,902z"/>
  <path class="fil1" d="M3189 14910c286,62 528,116 879,108 34,-389 124,-528 127,-870 -286,-44 -572,-124 -893,-114 -56,253 -111,590 -113,876z"/>
  <path class="fil3" d="M5362 6857c110,-52 819,-800 823,-837 -55,-34 -1103,-288 -1189,-284 -21,149 77,431 128,577 113,330 78,448 238,544z"/>
  <path class="fil5" d="M30451 7938c69,78 375,237 476,296 135,78 346,260 536,271l20 -1110c-196,22 -957,443 -1032,543z"/>
  <path class="fil4" d="M11590 4252c-208,110 168,381 246,464 42,45 96,109 183,62 173,-91 -55,-284 -97,-329 -62,-66 -197,-268 -332,-197z"/>
  <path class="fil4" d="M17731 6317c-236,101 -78,391 125,311 190,-75 83,-400 -125,-311z"/>
  <path class="fil4" d="M35036 8174c-473,145 -256,850 228,672 378,-139 227,-812 -228,-672z"/>
  <path class="fil4" d="M33285 12694c-136,-49 -281,-192 -408,-229l-49 100 386 233c-41,139 -170,251 -219,388 48,37 48,41 108,58 17,-62 183,-330 227,-373 93,49 287,186 368,213l61 -91c-71,-49 -298,-196 -370,-219 35,-128 179,-274 228,-409l-107 -52 -225 381z"/>
 </g>
</svg>
