<?xml version="1.0" encoding="UTF-8"?>
<!DOCTYPE svg PUBLIC "-//W3C//DTD SVG 1.1//EN" "http://www.w3.org/Graphics/SVG/1.1/DTD/svg11.dtd">
<!-- Creator: CorelDRAW X8 -->
<svg xmlns="http://www.w3.org/2000/svg" xml:space="preserve" width="406.4mm" height="228.6mm" version="1.1" style="shape-rendering:geometricPrecision; text-rendering:geometricPrecision; image-rendering:optimizeQuality; fill-rule:evenodd; clip-rule:evenodd"
viewBox="0 0 40640 22860"
 xmlns:xlink="http://www.w3.org/1999/xlink">
 <defs>
  <style type="text/css">
   <![CDATA[
    .str0 {stroke:#422B1E;stroke-width:7.62}
    .fil2 {fill:#422B1E}
    .fil6 {fill:#A2510F}
    .fil7 {fill:#C73932}
    .fil5 {fill:#E2A267}
    .fil1 {fill:#E88798}
    .fil0 {fill:#ECCBB9}
    .fil3 {fill:#ED8B55}
    .fil4 {fill:#ED9818}
   ]]>
  </style>
 </defs>
 <g id="Layer_x0020_1">
  <metadata id="CorelCorpID_0Corel-Layer"/>
  <path class="fil0" d="M25781 11659c-11,20 12,8 -9,16 44,2 25,3 37,11 -18,188 -27,398 -57,584 -25,161 -22,413 -70,565 -137,424 -349,963 -584,1319 -131,197 -122,174 -213,422 -55,147 -120,326 -148,487 -27,156 -81,420 -63,574l-1609 -45c-10,16 -46,102 -56,127 -37,60 -397,1409 -425,1511 -34,125 -380,1440 -390,1551l3459 0c-23,-217 -353,-1451 -413,-1654 -159,-544 -320,-926 -510,-1429 -5,-13 -13,-35 -20,-47 -18,-28 -12,-5 -28,-36 6,-367 106,-759 224,-1058 30,-79 59,-157 91,-231 35,-81 80,-128 126,-196 78,-116 161,-277 225,-410 100,-210 303,-683 361,-918 36,-144 47,-407 65,-570 15,-132 63,-460 52,-575l-45 2z"/>
  <path class="fil1" d="M22402 12014l41 527c23,51 24,141 35,201 11,64 24,126 42,186 37,120 76,227 115,344 108,327 233,723 348,1039 110,300 100,500 99,830l-17 451 1609 45c-18,-154 36,-418 63,-574 28,-161 93,-340 148,-487 91,-248 82,-225 213,-422 235,-356 447,-895 584,-1319 48,-152 45,-404 70,-565 30,-186 39,-396 57,-584 -12,-8 7,-9 -37,-11 21,-8 -2,4 9,-16l-6 -3 -25 5 -279 16c-26,-15 -11,-22 -9,-109l20 -360c-12,53 -22,276 -27,353 -4,52 8,77 -20,113 -20,26 -14,0 -22,45 -2,17 -3,32 -5,52 -4,41 -7,74 -9,119 -1,30 -11,205 -29,232 16,51 -1,175 -17,223l-232 491c-7,48 -74,170 -100,227 -19,41 -38,77 -56,114 -16,33 -33,79 -52,106 -45,109 -104,227 -157,336 -61,123 -103,232 -201,284 -26,33 -239,186 -294,201 -21,23 -152,85 -192,89 -63,48 -152,-24 -196,-52 -42,-28 -137,-83 -156,-113 -16,-18 -20,-26 -34,-44l-72 -81c-17,-22 -21,-18 -38,-37 -13,-13 -21,-28 -33,-44 -31,-40 -73,-45 -105,-119 -24,-16 -72,-78 -93,-122 -115,-236 -381,-857 -439,-1065 -40,-333 -68,-679 -86,-1017l-92 0c-19,-215 -54,-447 -69,-651 -3,-38 -8,-71 -8,-111 -1,-65 9,-44 35,-80 -25,11 -19,12 -47,22 -8,148 20,278 32,422 11,135 38,270 38,408 -82,-1 -256,22 -272,20 -3,-1 -6,-2 -8,-2l-17 -12c-14,-50 -4,-108 -13,-177l-22 -372c-3,-211 -2,-161 -82,-300l-225 -350c21,65 259,399 279,483 21,90 5,373 24,490 12,74 22,154 16,236 -12,171 15,321 16,489z"/>
  <path class="fil2" d="M21708 13840l88 20c-31,32 -361,138 -278,451 80,298 408,160 517,145 -33,47 -94,74 -143,186 -68,154 -51,399 157,443 112,23 208,-22 297,-26 -21,81 -55,147 -24,253 46,155 198,260 362,223 77,-18 159,-88 194,-95 9,109 57,242 131,279 10,-25 46,-111 56,-127l17 -451c1,-330 11,-530 -99,-830 -115,-316 -240,-712 -348,-1039 -39,-117 -78,-224 -115,-344 -18,-60 -31,-122 -42,-186 -11,-60 -12,-150 -35,-201 -128,85 -138,256 -62,424 -41,-10 -98,-81 -229,-107 -229,-46 -341,199 -275,358 41,98 97,125 147,187 -34,-5 -71,-30 -112,-43 -49,-15 -84,-21 -139,-19 -242,6 -288,213 -226,350 47,107 125,107 161,149z"/>
  <path class="fil2 str0" d="M23568 12355c-15,51 -70,172 -52,223 -5,-33 5,-89 -11,-107 -34,-12 -11,3 -30,-25l-55 -98c-54,-82 -191,-112 -271,-47 -56,45 -31,24 -77,82 7,13 16,7 25,34 -42,-3 -40,-9 -53,37 -13,43 -10,97 4,135l167 468c6,14 9,12 16,36 9,32 0,20 17,49l132 341c15,30 8,29 14,65l46 140c0,6 21,-12 -5,15 32,74 74,79 105,119 12,16 20,31 33,44 17,19 21,15 38,37l72 81c14,18 18,26 34,44 30,-18 10,2 8,-89 0,-41 3,-70 6,-102l32 -610c0,-64 -10,-194 12,-225l12 -13c80,-88 181,-259 314,-284 77,-22 184,51 220,99 83,113 92,439 66,598 -8,50 -22,96 -38,140 -19,51 -45,87 -60,123 49,1 117,-40 145,-62 58,-46 104,-150 96,-224 -4,-36 -20,-57 -32,-81 -22,-42 -20,-27 -45,-57 -19,-22 -27,-46 -26,-82 32,-25 224,-72 212,-262 -5,-94 -85,-181 -151,-199 -48,-13 -116,7 -99,-47 5,-15 4,-11 10,-20 -1,-120 18,-116 -28,-228 -37,-60 -115,-101 -211,-75 -80,22 -124,85 -155,151 -11,-36 -17,-92 -29,-132 -32,-28 -71,-143 -213,-137 -126,6 -178,131 -195,145z"/>
  <path class="fil3" d="M22067 10316l225 350c80,139 79,89 82,300l22 372c9,69 -1,127 13,177l17 12c2,0 5,1 8,2 16,2 190,-21 272,-20 0,-138 -27,-273 -38,-408 -12,-144 -40,-274 -32,-422 28,-10 22,-11 47,-22 49,-33 100,-100 135,-136 51,-51 91,-85 139,-141 18,-60 34,-74 25,-149 -39,-29 -84,-42 -135,-60 -90,-31 -78,-19 -96,-114 -1,-84 -21,-137 -72,-176 -79,0 -136,41 -177,79 -35,34 -132,88 -151,103 -19,15 -12,15 -36,30 -120,78 -139,97 -255,186l7 37z"/>
  <path class="fil4" d="M24101 12705c-23,60 -50,26 -133,125 -17,22 -7,16 -21,38l-86 109c-61,125 1,262 -24,465l-20 488c0,129 18,173 138,238 45,24 57,18 114,25 40,-4 171,-66 192,-89 -19,-127 -59,-258 -53,-394 21,-17 68,-39 81,-45 15,-36 41,-72 60,-123 16,-44 30,-90 38,-140 26,-159 17,-485 -66,-598 -36,-48 -143,-121 -220,-99z"/>
  <path class="fil5" d="M25482 11208l-20 360c-2,87 -17,94 9,109l27 -465c11,-122 25,-235 26,-356 1,-88 -20,-58 -26,-110l38 -6c1,-1 3,-1 5,-2 -4,-43 -13,-23 -19,-41 -12,-35 17,-27 48,-42 21,-11 -25,3 11,-9 5,19 4,17 9,34 3,13 -1,1 3,14 1,2 2,4 2,6l5 12c14,-22 12,-34 2,-57 42,-24 18,21 36,-17 11,-24 2,-9 -12,-44 38,9 193,10 240,4 34,-3 42,-12 66,-23l-58 99c-114,192 -98,148 -95,377l-29 610 25 -5c-6,-98 16,-252 20,-359 4,-133 4,-266 4,-399 0,-73 21,-87 52,-138 25,-41 49,-79 74,-121 33,-56 138,-198 143,-257 -13,-44 -444,-275 -497,-323 -48,-23 -157,-107 -214,-47 -50,52 -38,167 -49,252 -54,27 -127,39 -183,67 -4,45 2,108 13,149 18,71 189,188 249,234 138,105 124,75 120,202 -3,69 -12,234 -25,292z"/>
  <path class="fil3" d="M25471 11677l279 -16 29 -610c-3,-229 -19,-185 95,-377l58 -99c-24,11 -32,20 -66,23 -47,6 -202,5 -240,-4 14,35 23,20 12,44 -18,38 6,-7 -36,17 10,23 12,35 -2,57l-5 -12c0,-2 -1,-4 -2,-6 -4,-13 0,-1 -3,-14 -5,-17 -4,-15 -9,-34 -36,12 10,-2 -11,9 -31,15 -60,7 -48,42 6,18 15,-2 19,41 -2,1 -4,1 -5,2l-38 6c6,52 27,22 26,110 -1,121 -15,234 -26,356l-27 465z"/>
  <path class="fil2" d="M23146 12268c-86,99 -92,26 -152,292 -53,-7 -56,-37 -68,-44l-23 0c58,208 324,829 439,1065 21,44 69,106 93,122 26,-27 5,-9 5,-15l-46 -140c-6,-36 1,-35 -14,-65l-132 -341c-17,-29 -8,-17 -17,-49 -7,-24 -10,-22 -16,-36l-167 -468c-14,-38 -17,-92 -4,-135 13,-46 11,-40 53,-37 -9,-27 -18,-21 -25,-34 46,-58 21,-37 77,-82 80,-65 217,-35 271,47l55 98c19,28 -4,13 30,25 -19,-85 -66,-156 -122,-193 -84,-56 -149,-32 -237,-10z"/>
  <path class="fil6" d="M23717 14028c19,30 114,85 156,113 44,28 133,100 196,52 -57,-7 -69,-1 -114,-25 -120,-65 -138,-109 -138,-238l20 -488c25,-203 -37,-340 24,-465l86 -109c14,-22 4,-16 21,-38 83,-99 110,-65 133,-125 -133,25 -234,196 -314,284l-12 13c-22,31 -12,161 -12,225l-32 610c-3,32 -6,61 -6,102 2,91 22,71 -8,89z"/>
  <path class="fil7" d="M25173 10475c114,-17 145,-40 267,-7 205,57 137,124 287,122 153,-1 165,13 207,-78 19,-40 39,-63 44,-104l-56 -19c-1,1 -3,4 -5,5 -23,33 -75,137 -97,147 -78,10 -145,-32 -124,-105 27,-98 83,-142 48,-188 -33,19 -18,13 -32,50 -8,19 -16,34 -25,52 -41,91 -45,128 -144,64 -27,-18 -40,-33 -32,-86 8,-54 78,-153 38,-197 -20,14 -8,2 -22,26l-37 89c-10,23 -16,37 -25,59l-17 34c-28,57 -41,43 -148,74 -22,7 -41,15 -62,22 -91,30 -56,27 -65,40z"/>
  <path class="fil6" d="M22383 10285c28,35 43,101 31,155 -26,4 -60,12 -91,6 -63,-10 -127,-122 -130,-144l-51 11c13,55 61,158 119,173 45,11 84,9 130,13 19,1 57,4 75,0 16,-5 10,-4 21,-13 1,-1 3,-3 4,-4 1,-1 3,-3 4,-4l99 -71c158,-102 248,-68 364,-85l-12 -6c-9,-4 -5,-4 -19,-7 -49,-10 -240,-9 -276,-42 -64,-60 -67,-220 -140,-229 -7,87 80,164 69,257 -28,25 -76,56 -129,61 -10,-26 -31,-64 -45,-97l-57 -100c2,46 20,88 34,126z"/>
  <path class="fil3" d="M22193 10302c3,22 67,134 130,144 31,6 65,-2 91,-6 12,-54 -3,-120 -31,-155 -2,43 4,3 -17,21 -8,-27 12,-25 -48,-15 -29,5 7,1 -24,2 -9,0 -48,-2 -50,-1 -2,0 -17,6 -19,8 -1,1 -2,3 -3,5l-9 18c-11,-23 4,-10 -20,-21z"/>
 </g>
</svg>
