<?xml version="1.0" encoding="UTF-8"?>
<!DOCTYPE svg PUBLIC "-//W3C//DTD SVG 1.1//EN" "http://www.w3.org/Graphics/SVG/1.1/DTD/svg11.dtd">
<!-- Creator: CorelDRAW X8 -->
<svg xmlns="http://www.w3.org/2000/svg" xml:space="preserve" width="406.4mm" height="228.6mm" version="1.1" style="shape-rendering:geometricPrecision; text-rendering:geometricPrecision; image-rendering:optimizeQuality; fill-rule:evenodd; clip-rule:evenodd"
viewBox="0 0 40640 22860"
 xmlns:xlink="http://www.w3.org/1999/xlink">
 <defs>
  <style type="text/css">
   <![CDATA[
    .str1 {stroke:#E65B6B;stroke-width:7.62}
    .str2 {stroke:#E88798;stroke-width:7.62}
    .str0 {stroke:#E97D43;stroke-width:7.62}
    .fil6 {fill:#572D29}
    .fil5 {fill:#9D2C19}
    .fil4 {fill:#E65B6B}
    .fil3 {fill:#E66E83}
    .fil2 {fill:#E88798}
    .fil1 {fill:#E97D43}
    .fil0 {fill:#ECB33C}
   ]]>
  </style>
 </defs>
 <g id="Layer_x0020_1">
  <metadata id="CorelCorpID_0Corel-Layer"/>
  <path class="fil0" d="M15321 15528c-61,199 -99,447 -178,643l-70 209c13,61 -59,231 -76,298 -26,107 -51,203 -81,301 -14,43 -41,106 -48,144 -7,36 -6,51 -16,81 -8,24 -16,45 -23,69l-159 594c-24,94 -16,124 -51,228l-160 686 3489 0c-10,-110 -76,-305 -105,-421 -35,-140 -73,-271 -107,-409 -68,-274 -145,-544 -227,-806 -165,-524 -347,-931 -519,-1420 -14,-41 -9,-71 -44,-84l-401 -39c-60,-2 -144,-11 -200,-16 -254,-23 -541,-54 -795,-66l-195 -34c-19,15 -21,15 -34,42z"/>
  <path class="fil1" d="M17285 12280c-16,22 -54,103 -67,134l-72 135c0,25 -52,134 -74,160 -12,15 1,3 -16,15 4,33 -105,258 -126,307l-72 165c-27,88 -79,192 -117,283 -19,47 -37,90 -62,132 -24,39 -62,85 -77,117 8,11 10,-20 6,15 -109,68 -20,156 34,221 64,79 101,105 178,172 36,3 15,-1 38,17l8 9c37,31 44,16 50,77 -196,139 -511,-33 -704,-112 -7,-3 -19,-8 -24,-11 -38,-16 -80,-54 -91,-29 -8,17 -7,5 5,17l17 10c1,-2 4,1 6,2l13 57c20,39 16,-2 33,44 13,35 -8,92 -16,133l-4 14c-1,-2 -2,-5 -3,-7l-15 -47c0,14 2,26 -2,40l-40 54c1,-34 11,-79 -11,-105 -11,39 1,77 -13,91 -17,-25 -12,-55 -26,-80 -1,2 -2,5 -2,6 -1,1 -2,5 -3,6 0,2 -2,4 -2,6l-21 22c0,-1 -3,2 -6,3l3 63c-25,-9 -20,-15 -34,-35l-7 9c-7,13 -9,22 0,45 7,19 41,31 52,58 25,62 -43,32 -42,65 0,25 1,10 22,15 -24,20 -21,43 -20,78l6 -12c8,-14 5,-17 22,-25 -1,37 5,35 6,71l36 -36c-1,17 -2,25 0,42l2 39c0,1 -1,4 -1,6 -1,8 0,26 0,27 1,43 -40,49 -19,98 -61,-2 -3,-12 -34,-10 -1,2 -2,5 -3,7 0,1 -1,4 -2,6 0,2 -1,5 -1,7l-11 75c56,-5 -7,-8 52,-19 9,23 -2,2 10,15l14 12c-1,43 -5,47 -25,78 -2,-2 -3,-4 -4,-5l-34 -43c-20,-24 -18,-45 -30,-73 -1,2 -1,5 -2,7 -12,22 -6,23 -26,31 -7,-26 -6,-22 -32,-29l10 60c-28,26 -14,5 -31,17 -4,66 9,150 5,229 -19,-7 -14,-15 -28,-21 -32,-13 -32,36 -29,51l21 -35c0,-3 2,-4 3,-6 12,32 -1,25 3,57l21 -30 14 21c1,2 9,23 10,25l2 37c-20,-6 -15,-15 -26,-32 -29,39 16,64 -49,98 -36,18 -10,16 -58,8 -33,-5 -31,10 -96,9 -11,15 -36,46 -51,46 2,-2 12,16 -2,-6 -26,-39 -70,-21 -93,-30 -7,-3 -2,21 -10,-7 -1,-2 -3,-3 -5,-4l-17 35c-38,-9 -53,3 -87,-9l-17 33c-16,20 -6,12 -40,20l195 34c254,12 541,43 795,66 56,5 140,14 200,16l401 39c-7,-112 167,-632 208,-769 37,-126 64,-267 88,-401 30,-175 68,-217 130,-353 204,-443 354,-961 467,-1485 2,-79 73,-228 100,-304 47,-130 22,-210 1,-345 -18,-121 -39,-234 -57,-351l-62 -339 -92 19c-113,21 -86,-7 -243,11 -43,5 -99,2 -144,4 -17,292 28,507 15,773 -2,44 -39,164 -72,179z"/>
  <path class="fil1 str0" d="M14558 11824c2,90 18,154 22,234 2,46 4,75 12,114 6,28 10,81 17,105 25,45 58,341 74,419 23,110 41,79 50,192 10,141 317,1130 391,1358 62,194 61,166 114,386 34,141 177,713 157,834l17 -33c34,12 49,0 87,9l17 -35c2,1 4,2 5,4 8,28 3,4 10,7 23,9 67,-9 93,30 14,22 4,4 2,6 15,0 40,-31 51,-46 65,1 63,-14 96,-9 48,8 22,10 58,-8 65,-34 20,-59 49,-98 11,17 6,26 26,32l-2 -37c-1,-2 -9,-23 -10,-25l-14 -21 -21 30c-4,-32 9,-25 -3,-57 -1,2 -3,3 -3,6l-21 35c-3,-15 -3,-64 29,-51 14,6 9,14 28,21 4,-79 -9,-163 -5,-229 17,-12 3,9 31,-17l-10 -60c26,7 25,3 32,29 20,-8 14,-9 26,-31 1,-2 1,-5 2,-7 12,28 10,49 30,73l34 43c1,1 2,3 4,5 20,-31 24,-35 25,-78l-14 -12c-12,-13 -1,8 -10,-15 -59,11 4,14 -52,19l11 -75c0,-2 1,-5 1,-7 1,-2 2,-5 2,-6 1,-2 2,-5 3,-7 31,-2 -27,8 34,10 -21,-49 20,-55 19,-98 0,-1 -1,-19 0,-27 0,-2 1,-5 1,-6l-2 -39c-2,-17 -1,-25 0,-42l-36 36c-1,-36 -7,-34 -6,-71 -17,8 -14,11 -22,25l-6 12c-1,-35 -4,-58 20,-78 -21,-5 -22,10 -22,-15 -1,-33 67,-3 42,-65 -11,-27 -45,-39 -52,-58 -9,-23 -7,-32 0,-45l7 -9c14,20 9,26 34,35l-3 -63c3,-1 6,-4 6,-3l21 -22c0,-2 2,-4 2,-6 1,-1 2,-5 3,-6 0,-1 1,-4 2,-6 14,25 9,55 26,80 14,-14 2,-52 13,-91 22,26 12,71 11,105l40 -54c4,-14 2,-26 2,-40l15 47c1,2 2,5 3,7l4 -14c8,-41 29,-98 16,-133 -17,-46 -13,-5 -33,-44l-13 -57c-2,-1 -5,-4 -6,-2l-17 -10c-12,-12 -13,0 -5,-17 11,-25 53,13 91,29 5,3 17,8 24,11 193,79 508,251 704,112 -6,-61 -13,-46 -50,-77l-8 -9c-23,-18 -2,-14 -38,-17 -4,14 -2,16 36,45 23,18 30,15 36,45 -30,29 -56,32 -114,32 -187,0 -236,-12 -416,-101l-228 -101c-41,-20 -99,-55 -113,-53 -81,-30 -115,-72 -150,-140l-164 -385c-72,-165 -190,-433 -240,-582l-148 -390 -87 -217c-66,-99 -123,-811 -111,-982 -24,-8 -54,-10 -86,-13l-18 -2 -427 -11c105,-10 354,0 444,31 -3,1 -6,2 -8,3l-43 16c50,1 13,-4 25,25l-25 9c-18,2 -13,1 -17,-9 -7,25 -9,40 -9,76 -17,-6 -60,-1 -25,-34 -1,3 -26,38 -33,29 -2,-2 -6,3 -9,5 -15,-36 -2,-23 0,-25l0 76c19,0 11,-37 8,-59l34 10c37,1 26,-11 51,15 -35,27 -37,12 -44,37 0,0 0,2 0,2 0,0 1,3 1,3 -3,-7 -27,15 5,-7 27,-18 9,-3 10,-3l45 -15c-4,79 -17,2 -17,135 -35,-27 -23,35 -26,-33 -2,25 -8,29 -8,59 -8,-10 -18,16 4,-4l30 -38 19 32c3,27 -25,31 -28,31 -24,3 -1,-3 0,-4 0,10 2,43 0,51l-12 34c0,-1 -3,5 -5,8 -29,-38 -16,-68 -16,-68 -13,-64 23,58 -17,-29 -13,-30 -5,-72 -6,-18 -1,22 -17,38 -17,38l-6 19c-12,42 6,-6 -5,24 -32,-25 -25,38 -26,-42 -10,26 -24,61 -45,79l-41 63c0,3 -13,61 -23,47 -2,-2 -6,4 -9,5 -7,-35 -22,-41 8,-59 -30,-6 -31,-32 -34,-68l9 0c0,47 8,59 8,111l-15 -17c-2,-2 -4,-4 -6,-7 -2,-2 -3,-4 -5,-6 -1,-2 -5,-6 -6,-9 0,-2 0,-3 -1,-4 32,-29 12,19 -17,43l-17 -73c0,-2 -2,-4 -3,-5 0,-2 -2,-4 -3,-5 -6,-13 -14,-11 -3,-19 2,2 4,9 4,12l3 13c2,12 1,19 3,30 10,48 7,-27 13,45 2,23 17,8 -32,53 -2,1 -4,3 -6,5l-44 -31c0,21 -9,67 -17,85 -1,-34 -12,-106 -27,-125z"/>
  <path class="fil2" d="M14360 14803c-3,13 -155,234 7,386 47,45 111,69 192,72 114,5 147,-41 218,-42 4,96 -12,144 28,227 28,57 76,106 128,133 144,77 275,7 388,-51 13,-27 15,-27 34,-42 34,-8 24,0 40,-20 20,-121 -123,-693 -157,-834 -53,-220 -52,-192 -114,-386 -74,-228 -381,-1217 -391,-1358 -9,-113 -27,-82 -50,-192 -16,-78 -49,-374 -74,-419 6,94 66,466 91,567 11,43 41,128 37,171 -19,13 -71,20 -137,58 -41,25 -67,59 -90,104 -87,169 5,287 -21,326 -27,27 -110,51 -158,97 -100,94 -162,229 -92,363 35,66 80,91 106,136 -54,59 -257,108 -251,356 6,254 295,259 326,279 -12,28 -34,53 -60,69z"/>
  <path class="fil3" d="M17282 12263l3 17c33,-15 70,-135 72,-179 13,-266 -32,-481 -15,-773 45,-2 101,1 144,-4 157,-18 130,10 243,-11l92 -19 62 339c18,117 39,230 57,351 21,135 46,215 -1,345 -27,76 -98,225 -100,304 33,-98 69,-190 104,-281 58,-152 36,-176 13,-336 -34,-234 -60,-537 -134,-756l-98 -591c-9,-83 45,-237 69,-320 22,-74 83,-253 85,-313 -67,-49 -182,-92 -268,-130 -87,-39 -191,-79 -273,-121 -63,-19 -255,-121 -311,-111 -123,22 -62,220 -67,330 -17,7 -50,17 -67,28l-162 106c0,37 29,98 42,132 21,56 31,69 78,98 72,45 147,86 222,125 287,151 253,74 255,448 2,299 -7,743 18,1034 5,55 7,125 -6,171 -7,26 -15,35 -24,58 -10,24 -14,43 -33,59z"/>
  <path class="fil3" d="M16021 14003c14,-2 72,33 113,53l228 101c180,89 229,101 416,101 58,0 84,-3 114,-32 -6,-30 -13,-27 -36,-45 -38,-29 -40,-31 -36,-45 -77,-67 -114,-93 -178,-172 -54,-65 -143,-153 -34,-221 4,-35 2,-4 -6,-15 -33,22 -31,35 -61,49 -21,-51 -37,-117 -38,-177 8,-8 7,-6 16,-13l29 -20c-18,-24 14,-44 25,-60 53,-78 78,-305 78,-407 0,-89 -1,-185 -17,-275 -3,-21 -11,-61 -15,-84 -5,-35 2,-66 -5,-95l-129 -160c-19,-16 -2,-16 -66,-38 -25,-9 -39,-19 -71,-20 -2,2 -4,3 -6,4l-126 122 -155 284c-1,2 -2,4 -3,6 -1,1 -2,3 -3,5l-10 31c-20,67 -39,119 -49,196 -12,89 -28,732 0,844 8,35 35,54 25,83z"/>
  <path class="fil4 str1" d="M14271 9916c29,12 5,-6 28,24 91,120 143,216 216,344l83 109c-6,-16 -21,-25 6,-37 27,-13 -13,8 38,-1 8,-2 -8,-18 47,8 15,7 -15,-3 10,5 1,0 4,1 5,1 45,9 -8,-9 15,-4 39,70 52,15 68,77 22,-13 21,-26 26,-33 0,23 2,44 9,59 12,25 95,52 95,116l-3 160c-2,30 -10,10 20,43 -14,33 6,7 -27,26 30,9 21,6 35,26l-35 19c15,27 2,33 2,65 40,-10 -4,-3 23,-15l20 -3c0,2 0,3 0,5l32 156c29,83 -10,159 12,191 12,17 13,11 16,16 17,25 20,-11 5,19l18 2c-13,-34 -72,-734 -89,-846 -20,-127 -32,-95 122,-217 30,-24 72,-71 116,-83 14,-31 101,-94 129,-121 28,-27 37,-36 42,-86 3,-37 6,-85 -2,-121 -30,-29 -68,-40 -109,-53 -23,-7 -40,-14 -64,-21 -52,-15 -43,-14 -43,-28 -15,-19 -6,3 -13,-30 -1,-7 -1,-18 -1,-25l-10 -141c-41,-229 -243,-70 -362,1 -170,103 -345,202 -505,308 -5,42 3,63 25,85z"/>
  <path class="fil2" d="M15742 12310l-8 101c-108,-47 -150,-65 -285,-31 16,21 -23,18 22,17 -14,1 -2,13 11,51 16,47 24,38 30,73 6,28 -3,4 10,31 8,19 7,13 16,36 12,28 15,55 28,81 37,75 15,37 42,111l50 120c12,29 18,56 29,82 2,0 24,-21 47,68l50 101c-6,3 -2,3 -24,-4 15,89 -15,32 49,161l33 79c54,195 109,252 114,451 4,-230 -30,-676 31,-870 37,-116 124,-338 212,-439 18,-20 24,-10 65,-61 32,-39 34,-28 84,-40 32,1 46,11 71,20 64,22 47,22 66,38l129 160c7,29 0,60 5,95 4,23 12,63 15,84 16,90 17,186 17,275 0,102 -25,329 -78,407 -11,16 -43,36 -25,60 116,-54 132,-420 125,-575 -4,-97 -40,-234 -34,-314 10,-132 24,-189 -15,-316 -46,-87 -82,-149 -181,-181 -117,-38 -209,0 -255,79l-20 -44c-52,-62 -133,-125 -255,-91 -51,14 -83,37 -110,68 -43,47 -38,87 -61,117z"/>
  <path class="fil4 str1" d="M14584 11268l6 13 427 11c15,-30 12,6 -5,-19 -3,-5 -4,1 -16,-16 -22,-32 17,-108 -12,-191l-32 -156c0,-2 0,-3 0,-5l-20 3c-27,12 17,5 -23,15 0,-32 13,-38 -2,-65l35 -19c-14,-20 -5,-17 -35,-26 33,-19 13,7 27,-26 -30,-33 -22,-13 -20,-43l3 -160c0,-64 -83,-91 -95,-116 -7,-15 -9,-36 -9,-59 -5,7 -4,20 -26,33 -16,-62 -29,-7 -68,-77 -23,-5 30,13 -15,4 -1,0 -4,-1 -5,-1 -25,-8 5,2 -10,-5 -55,-26 -39,-10 -47,-8 -51,9 -11,-12 -38,1 -27,12 -12,21 -6,37l-83 -109c-73,-128 -125,-224 -216,-344 -23,-30 1,-12 -28,-24 18,51 127,202 164,261 28,47 52,87 80,132 25,40 66,84 69,132l0 827z"/>
  <path class="fil1 str0" d="M14558 11824c15,19 26,91 27,125 8,-18 17,-64 17,-85l44 31c2,-2 4,-4 6,-5 49,-45 34,-30 32,-53 -6,-72 -3,3 -13,-45 -2,-11 -1,-18 -3,-30l-3 -13c0,-3 -2,-10 -4,-12 -11,8 -3,6 3,19 1,1 3,3 3,5 1,1 3,3 3,5l17 73c29,-24 49,-72 17,-43 1,1 1,2 1,4 1,3 5,7 6,9 2,2 3,4 5,6 2,3 4,5 6,7l15 17c0,-52 -8,-64 -8,-111l-9 0c3,36 4,62 34,68 -30,18 -15,24 -8,59 3,-1 7,-7 9,-5 10,14 23,-44 23,-47l41 -63c21,-18 35,-53 45,-79 1,80 -6,17 26,42 11,-30 -7,18 5,-24l6 -19c0,0 16,-16 17,-38 1,-54 -7,-12 6,18 40,87 4,-35 17,29 0,0 -13,30 16,68 2,-3 5,-9 5,-8l12 -34c2,-8 0,-41 0,-51 -1,1 -24,7 0,4 3,0 31,-4 28,-31l-19 -32 -30 38c-22,20 -12,-6 -4,4 0,-30 6,-34 8,-59 3,68 -9,6 26,33 0,-133 13,-56 17,-135l-45 15c-1,0 17,-15 -10,3 -32,22 -8,0 -5,7 0,0 -1,-3 -1,-3 0,0 0,-2 0,-2 7,-25 9,-10 44,-37 -25,-26 -14,-14 -51,-15l-34 -10c3,22 11,59 -8,59l0 -76c-2,2 -15,-11 0,25 3,-2 7,-7 9,-5 7,9 32,-26 33,-29 -35,33 8,28 25,34 0,-36 2,-51 9,-76 4,10 -1,11 17,9l25 -9c-12,-29 25,-24 -25,-25l43 -16c2,-1 5,-2 8,-3 -90,-31 -339,-41 -444,-31l-6 -13 -65 5c-6,52 7,221 13,279 10,92 23,177 26,272z"/>
  <path class="fil5" d="M15319 12506l148 390c50,149 168,417 240,582l164 385c35,68 69,110 150,140 10,-29 -17,-48 -25,-83 -28,-112 -12,-755 0,-844 10,-77 29,-129 49,-196l10 -31c1,-2 2,-4 3,-5 1,-2 2,-4 3,-6l155 -284 126 -122c2,-1 4,-2 6,-4 -50,12 -52,1 -84,40 -41,51 -47,41 -65,61 -88,101 -175,323 -212,439 -61,194 -27,640 -31,870l9 109c-10,-30 -15,-50 -20,-88 -10,-71 -19,-44 -29,-106 -12,-70 -122,-281 -154,-388 -21,-71 -82,-191 -122,-303 -1,-2 -2,-4 -3,-6 -1,-3 -6,-15 -10,-24l-90 -249c-11,-33 -26,-63 -41,-94 -32,-66 -46,-137 -69,-203 -1,-2 -8,-20 -10,-25 -20,-56 7,-22 -4,-55 -21,16 -33,29 -47,53 -16,28 -14,47 -47,47z"/>
  <path class="fil6" d="M16800 10277c216,-45 263,-97 493,-4 152,62 117,96 209,65 72,-24 167,-49 236,-62l48 -176c0,-2 0,-5 0,-7 0,-2 0,-5 0,-7l-51 -30c-45,56 -56,135 -96,180 -45,49 -130,32 -189,-32 4,-56 18,-100 30,-153l23 -101c-3,-37 -1,-19 -14,-31 -32,14 -41,88 -49,119 -35,143 -44,153 -152,105 -43,-19 -66,-21 -70,-74 -6,-78 40,-187 32,-250 -34,2 -31,-22 -56,66l-51 169c-32,97 -15,59 -194,135l-149 88z"/>
  <path class="fil6" d="M14602 9695c-25,37 33,126 67,213 8,20 24,53 11,78 -30,51 -142,63 -186,14l-107 -154c-27,9 -33,10 -55,29 21,64 99,178 141,194 34,13 105,19 145,25 75,11 86,24 146,-16 193,-129 281,-134 557,-140 -35,-67 -268,-38 -335,-92 -57,-45 -85,-257 -156,-275 -67,85 173,249 0,328 -170,78 -148,-177 -228,-204z"/>
  <path class="fil2 str2" d="M15413 12406c11,33 -16,-1 4,55 2,5 9,23 10,25 23,66 37,137 69,203 15,31 30,61 41,94l90 249c4,9 9,21 10,24 1,2 2,4 3,6 40,112 101,232 122,303 32,107 142,318 154,388 10,62 19,35 29,106 5,38 10,58 20,88l-9 -109c-5,-199 -60,-256 -114,-451l-33 -79c-64,-129 -34,-72 -49,-161 22,7 18,7 24,4l-50 -101c-23,-89 -45,-68 -47,-68 -11,-26 -17,-53 -29,-82l-50 -120c-27,-74 -5,-36 -42,-111 -13,-26 -16,-53 -28,-81 -9,-23 -8,-17 -16,-36 -13,-27 -4,-3 -10,-31 -6,-35 -14,-26 -30,-73 -13,-38 -25,-50 -11,-51 -45,1 -6,4 -22,-17l-36 26z"/>
 </g>
</svg>
