<?xml version="1.0" encoding="UTF-8"?>
<!DOCTYPE svg PUBLIC "-//W3C//DTD SVG 1.1//EN" "http://www.w3.org/Graphics/SVG/1.1/DTD/svg11.dtd">
<!-- Creator: CorelDRAW X8 -->
<svg xmlns="http://www.w3.org/2000/svg" xml:space="preserve" width="406.4mm" height="228.6mm" version="1.1" style="shape-rendering:geometricPrecision; text-rendering:geometricPrecision; image-rendering:optimizeQuality; fill-rule:evenodd; clip-rule:evenodd"
viewBox="0 0 40640 22860"
 xmlns:xlink="http://www.w3.org/1999/xlink">
 <defs>
  <style type="text/css">
   <![CDATA[
    .str0 {stroke:#E65B6B;stroke-width:7.62}
    .fil7 {fill:#9D2C19}
    .fil6 {fill:#A2510F}
    .fil5 {fill:#D36518}
    .fil1 {fill:#E65B6B}
    .fil4 {fill:#E65B6B}
    .fil2 {fill:#ED9818}
    .fil3 {fill:#F1AF95}
    .fil0 {fill:#F9AA29}
   ]]>
  </style>
 </defs>
 <g id="Layer_x0020_1">
  <metadata id="CorelCorpID_0Corel-Layer"/>
  <path class="fil0" d="M18386 18781l3257 0c-9,-106 -343,-1443 -375,-1561 -45,-173 -389,-1289 -471,-1466l-2 -24 -30 -37 -73 -1 -189 -10c-24,-2 -30,-7 -51,-10l-418 -24c-104,2 -199,-19 -282,-18 -66,2 -128,-10 -184,-8 -134,4 -257,-16 -386,-16l14 -24c1,-3 1,-5 2,-8l-20 -485c0,-55 -10,-48 -14,-92 -5,-69 -28,-142 -30,-191l-2 -45 2 4c-19,53 16,339 25,396 11,75 18,342 13,420 -15,18 -19,13 -32,36 -21,37 -34,101 -48,136l-108 390c-21,66 -31,130 -50,197 -20,70 -33,126 -50,204 -9,40 -14,61 -27,99 -12,36 -10,64 -20,100l-101 396c-50,215 -342,1521 -350,1642z"/>
  <path class="fil1" d="M19393 11739l-76 23c-32,23 -75,29 -101,58 45,3 12,-5 56,-12 -7,4 -22,-1 -19,37 1,19 30,25 -1,22l-22 -9c-1,-3 -5,-2 -7,-3 -5,48 -9,4 -23,43 17,13 7,10 20,8 11,-3 6,-14 27,2l13 11c1,1 3,3 3,4 34,43 -7,41 -1,67 8,34 3,9 14,19l33 -51c0,47 -12,41 -22,129 -1,8 3,11 -21,29 0,0 -14,9 -15,10 8,22 0,6 13,14l13 3c-15,56 0,51 -2,119l18 0c1,34 -5,35 -5,59 0,70 5,53 9,96l-16 163c-9,49 -6,57 -23,98 48,32 32,30 34,100 -9,3 -1,0 -8,0 -6,0 1,-3 -9,0 -1,79 -29,-22 -17,136 -1,0 -3,0 -3,0l-23 8c3,59 5,93 -42,111 12,-24 20,-27 27,-52 -30,4 -20,5 -29,8 -23,5 -27,30 -23,52 -30,-7 -7,-6 -40,-9 -2,34 -10,35 -10,38 -1,1 -1,3 -1,4 -2,28 8,11 10,51 -10,4 6,19 -18,-18l-5 13c-17,30 2,15 -22,24 -18,-45 12,-15 -6,-52 -20,30 -24,-7 -26,93 -40,-19 12,2 -18,-15l-30 -3c-12,1 1,-6 -12,1l-7 59c-2,1 -4,1 -5,1l-16 7c-1,1 -3,2 -4,3 -1,0 -3,2 -4,2 0,1 -3,2 -3,3 -1,0 -3,2 -4,2 -24,16 -8,-18 -22,35l-19 -29c-12,18 -10,20 -9,43 -31,-27 -7,-14 -49,-8l-25 -39c0,-3 -2,-3 -4,-5 -31,51 -10,26 -26,26l-31 6c-1,0 -3,1 -4,2 -1,0 -3,1 -5,1l-53 21c-24,3 0,21 -15,-4 -13,11 -16,18 -22,15 -46,17 -69,53 -121,63 -31,-12 -42,-30 -64,-53 -34,-47 -67,-78 -90,-149 -9,-27 -23,-78 -27,-99 -11,-47 6,-82 -42,-81 0,33 -37,86 -50,169 -11,67 -5,140 -29,198 -49,-16 -69,-79 -81,-135 -15,-75 0,-159 -32,-202 -33,21 -43,63 -63,103 -90,180 -90,469 24,660 71,119 69,95 130,157l17 19c1,1 3,3 5,5 23,58 -82,366 158,584 132,119 109,46 169,85 -5,66 -91,72 8,153 40,33 100,84 163,80 185,-13 325,-99 385,-110 26,-44 34,-31 99,-71 79,-50 160,-104 228,-170 20,-19 17,-27 47,-32l7 66c-2,100 -40,152 -76,225l-56 105c-16,31 -35,59 -52,86l52 -27c2,-24 18,-52 31,-74l112 -240c17,73 0,8 -12,70 2,-1 4,-7 5,-5l18 -20c10,-12 18,-20 19,-39 2,1 5,1 6,5l17 12c27,14 34,-5 59,-23l-32 0c10,-24 25,-31 41,-49 2,-3 14,-17 15,-18 40,5 22,3 31,20l8 -29c1,-1 1,-4 2,-5 0,-1 0,-4 1,-6 24,21 21,57 15,88 1,-2 2,-7 3,-6l6 -12c14,-18 -6,-9 21,-19 4,62 7,15 -8,69 33,-17 21,-29 69,-41 51,-50 69,-53 91,-83 15,-21 26,-30 38,-47 157,-210 196,-446 183,-709 -3,-64 3,-38 46,-95l63 -82c14,-43 50,-88 72,-139 23,-55 25,-109 41,-170 -2,-167 37,-334 56,-495 12,-105 34,-121 63,-215 9,-30 62,-183 75,-195 7,-69 57,-179 78,-254 13,-47 24,-88 36,-133 13,-49 30,-92 1,-129 -71,-52 -155,-94 -253,-127 -43,-14 -101,-28 -147,-39 -152,-37 -371,-33 -523,-19 -128,11 -292,52 -323,54z"/>
  <path class="fil2" d="M21105 11252l-59 20c-25,189 86,850 12,930 2,47 -59,269 -75,329 -14,50 -31,109 -48,156 -13,38 -15,28 -26,72 -26,114 -226,592 -280,629 -40,107 -257,320 -366,361l-19 15c-1,1 -3,3 -5,5l31 17c-35,62 -22,123 -24,212l-22 163c0,2 -1,5 -2,7l-5 47c-7,35 5,-6 -6,16 -1,2 -2,4 -3,5l-10 17c-22,49 -52,100 -64,146 -15,58 -5,23 -38,73 -1,2 -2,4 -3,5l-14 19c0,1 -2,3 -2,4 -32,44 -3,5 -46,40l-43 52c-28,28 -37,11 -62,57l-21 29c-77,76 -39,-8 -123,71 -7,6 -4,4 -14,12l-51 42c-11,11 -3,4 -13,12 -2,2 -8,6 -10,7 -20,14 9,-5 -10,7l-120 51 -33 -10c14,-42 11,-21 43,-42 17,-12 7,-4 20,-20l15 -22c-23,18 -29,23 -59,39 -26,14 -33,23 -60,40 -33,22 -99,51 -121,73l-52 27c17,-27 36,-55 52,-86l56 -105c36,-73 74,-125 76,-225 -14,39 -5,12 -15,23l-136 95c-40,19 -38,51 -158,104l-40 20c-2,1 -4,3 -6,4l-12 11c2,49 25,122 30,191 4,44 14,37 14,92l20 485c-1,3 -1,5 -2,8l-14 24c129,0 252,20 386,16 56,-2 118,10 184,8 83,-1 178,20 282,18l418 24c21,3 27,8 51,10l189 10 15 -96c-35,-61 91,-462 119,-541 57,-164 118,-332 180,-496 156,-411 388,-1115 489,-1553 20,-86 46,-184 70,-268 84,-295 86,-285 54,-610 -10,-99 -17,-207 -25,-308 -8,-103 -18,-213 -27,-313l-21 -304c-5,-17 -2,-11 -10,-22l-341 48c-35,7 -71,25 -90,23z"/>
  <path class="fil2" d="M18656 13294l4 15c6,3 9,-4 22,-15 185,-137 230,-292 283,-590 32,-180 54,-382 93,-558 13,-61 35,-120 42,-183 -5,-119 -15,-248 -19,-370 -3,-117 1,-255 -12,-370 -41,-10 -89,-19 -120,-27 -33,-10 0,-19 -71,-23 -43,-3 -47,-11 -79,-15 -42,-5 -314,-13 -341,5 -37,25 -12,796 -3,879 12,115 29,229 34,338 6,120 11,223 27,339 21,150 58,307 107,449 8,22 14,45 24,70 33,81 16,46 9,56z"/>
  <path class="fil3" d="M20769 10284c39,0 171,82 218,106 47,25 71,20 78,81 13,103 46,714 40,781 19,2 55,-16 90,-23l341 -48c8,11 5,5 10,22l21 304c9,100 19,210 27,313 8,101 15,209 25,308 32,325 30,315 -54,610 -24,84 -50,182 -70,268 -101,438 -333,1142 -489,1553 -62,164 -123,332 -180,496 -28,79 -154,480 -119,541 55,-405 198,-710 318,-1051 118,-338 234,-672 341,-1022 30,-97 277,-981 283,-1083 8,-140 -76,-1032 -90,-1279l-62 7c-40,-219 -64,-438 -107,-654 -22,-113 28,-209 60,-312 30,-96 62,-200 92,-287l-7 -10 -478 -170c-54,-19 -196,-85 -250,-39 -57,48 -22,192 -23,272 -44,17 -129,71 -159,101 1,36 27,107 44,130 30,41 54,45 75,60l25 25z"/>
  <path class="fil3" d="M18442 10123c19,29 147,347 153,396 10,76 -21,175 -28,245 -10,84 -21,167 -28,253 -3,37 7,109 -21,123 -42,20 -78,-21 -84,47 -19,219 -11,614 -1,826 26,118 39,352 45,494 4,112 37,391 72,475l23 106 43 105c11,29 26,72 40,101 7,-10 24,25 -9,-56 -10,-25 -16,-48 -24,-70 -49,-142 -86,-299 -107,-449 -16,-116 -21,-219 -27,-339 -5,-109 -22,-223 -34,-338 -9,-83 -34,-854 3,-879 27,-18 299,-10 341,-5 32,4 36,12 79,15 71,4 38,13 71,23l-5 -704 247 -185c35,-26 98,-66 123,-98 30,-37 46,-132 32,-176 -31,-13 -170,-73 -188,-99 -4,-100 36,-238 -94,-232 -62,3 -629,288 -654,309l32 112z"/>
  <path class="fil4 str0" d="M19216 11820c-27,20 -40,46 -59,78 -9,13 -19,29 -28,41 -15,19 -8,18 -29,24 -7,63 -29,122 -42,183 -39,176 -61,378 -93,558 -53,298 -98,453 -283,590 15,25 -9,7 15,4l53 -21c2,0 4,-1 5,-1 1,-1 3,-2 4,-2l31 -6c16,0 -5,25 26,-26 2,2 4,2 4,5l25 39c42,-6 18,-19 49,8 -1,-23 -3,-25 9,-43l19 29c14,-53 -2,-19 22,-35 1,0 3,-2 4,-2 0,-1 3,-2 3,-3 1,0 3,-2 4,-2 1,-1 3,-2 4,-3l16 -7c1,0 3,0 5,-1l7 -59c13,-7 0,0 12,-1l30 3c30,17 -22,-4 18,15 2,-100 6,-63 26,-93 18,37 -12,7 6,52 24,-9 5,6 22,-24l5 -13c24,37 8,22 18,18 -2,-40 -12,-23 -10,-51 0,-1 0,-3 1,-4 0,-3 8,-4 10,-38 33,3 10,2 40,9 -4,-22 0,-47 23,-52 9,-3 -1,-4 29,-8 -7,25 -15,28 -27,52 47,-18 45,-52 42,-111l23 -8c0,0 2,0 3,0 -12,-158 16,-57 17,-136 10,-3 3,0 9,0 7,0 -1,3 8,0 -2,-70 14,-68 -34,-100 17,-41 14,-49 23,-98l16 -163c-4,-43 -9,-26 -9,-96 0,-24 6,-25 5,-59l-18 0c2,-68 -13,-63 2,-119l-13 -3c-13,-8 -5,8 -13,-14 1,-1 15,-10 15,-10 24,-18 20,-21 21,-29 10,-88 22,-82 22,-129l-33 51c-11,-10 -6,15 -14,-19 -6,-26 35,-24 1,-67 0,-1 -2,-3 -3,-4l-13 -11c-21,-16 -16,-5 -27,-2 -13,2 -3,5 -20,-8 14,-39 18,5 23,-43 2,1 6,0 7,3l22 9c31,3 2,-3 1,-22 -3,-38 12,-33 19,-37 -44,7 -11,15 -56,12z"/>
  <path class="fil5" d="M19740 14675c-36,9 -7,-4 -35,23 -14,14 -17,16 -31,28 -20,16 -48,42 -65,60l-15 22c-13,16 -3,8 -20,20 -32,21 -29,0 -43,42l33 10 120 -51c19,-12 -10,7 10,-7 2,-1 8,-5 10,-7 10,-8 2,-1 13,-12l51 -42c10,-8 7,-6 14,-12 84,-79 46,5 123,-71l21 -29c25,-46 34,-29 62,-57l43 -52c43,-35 14,4 46,-40 0,-1 2,-3 2,-4l14 -19c1,-1 2,-3 3,-5 33,-50 23,-15 38,-73 12,-46 42,-97 64,-146l10 -17c1,-1 2,-3 3,-5 11,-22 -1,19 6,-16l5 -47c1,-2 2,-5 2,-7l22 -163c2,-89 -11,-150 24,-212l-31 -17c2,-2 4,-4 5,-5l19 -15c-23,-5 -18,-6 -26,-35 -4,-17 -7,-35 -11,-46 -15,17 -1,-7 -9,19 -8,26 3,19 -13,54 -12,25 -9,-4 -13,36 -5,48 10,149 -11,219 -15,50 -17,103 -29,158l-83 195c-52,71 -36,105 -119,162 -74,50 -155,166 -209,164z"/>
  <path class="fil6" d="M20330 13291c112,-128 149,-205 191,-395 19,-83 36,-163 39,-253 5,-145 -33,-225 -36,-257 -13,12 -66,165 -75,195 -29,94 -51,110 -63,215 -19,161 -58,328 -56,495z"/>
  <path class="fil7" d="M19796 14616c-14,21 -8,12 -26,29 -20,18 -14,7 -30,30 54,2 135,-114 209,-164 83,-57 67,-91 119,-162l83 -195c12,-55 14,-108 29,-158 21,-70 6,-171 11,-219 4,-40 1,-11 13,-36 16,-35 5,-28 13,-54 8,-26 -6,-2 9,-19l-9 -68 -63 82c-43,57 -49,31 -46,95 13,263 -26,499 -183,709 -12,17 -23,26 -38,47 -22,30 -40,33 -91,83z"/>
  <path class="fil4 str0" d="M19369 14938c22,-22 88,-51 121,-73 27,-17 34,-26 60,-40 30,-16 36,-21 59,-39 17,-18 45,-44 65,-60 14,-12 17,-14 31,-28 28,-27 -1,-14 35,-23 16,-23 10,-12 30,-30 18,-17 12,-8 26,-29 -48,12 -36,24 -69,41 15,-54 12,-7 8,-69 -27,10 -7,1 -21,19l-6 12c-1,-1 -2,4 -3,6 6,-31 9,-67 -15,-88 -1,2 -1,5 -1,6 -1,1 -1,4 -2,5l-8 29c-9,-17 9,-15 -31,-20 -1,1 -13,15 -15,18 -16,18 -31,25 -41,49l32 0c-25,18 -32,37 -59,23l-17 -12c-1,-4 -4,-4 -6,-5 -1,19 -9,27 -19,39l-18 20c-1,-2 -3,4 -5,5 12,-62 29,3 12,-70l-112 240c-13,22 -29,50 -31,74z"/>
  <path class="fil5" d="M19120 14756c-3,15 -5,9 14,9l-2 -4 2 45 12 -11c2,-1 4,-3 6,-4l40 -20c120,-53 118,-85 158,-104l136 -95c10,-11 1,16 15,-23l-7 -66c-30,5 -27,13 -47,32 -68,66 -149,120 -228,170 -65,40 -73,27 -99,71z"/>
 </g>
</svg>
