<?xml version="1.0" encoding="UTF-8"?>
<!DOCTYPE svg PUBLIC "-//W3C//DTD SVG 1.1//EN" "http://www.w3.org/Graphics/SVG/1.1/DTD/svg11.dtd">
<!-- Creator: CorelDRAW X8 -->
<svg xmlns="http://www.w3.org/2000/svg" xml:space="preserve" width="406.4mm" height="228.6mm" version="1.1" style="shape-rendering:geometricPrecision; text-rendering:geometricPrecision; image-rendering:optimizeQuality; fill-rule:evenodd; clip-rule:evenodd"
viewBox="0 0 40640 22860"
 xmlns:xlink="http://www.w3.org/1999/xlink">
 <defs>
  <style type="text/css">
   <![CDATA[
    .str1 {stroke:#422B1E;stroke-width:7.62}
    .str2 {stroke:#E65B6B;stroke-width:7.62}
    .str3 {stroke:#E88798;stroke-width:7.62}
    .str0 {stroke:#E97D43;stroke-width:7.62}
    .fil7 {fill:#422B1E}
    .fil14 {fill:#572D29}
    .fil13 {fill:#9D2C19}
    .fil15 {fill:#A2510F}
    .fil17 {fill:#C73932}
    .fil16 {fill:#D36518}
    .fil11 {fill:#E2A267}
    .fil4 {fill:#E65B6B}
    .fil12 {fill:#E65B6B}
    .fil8 {fill:#E66E83}
    .fil3 {fill:#E88798}
    .fil6 {fill:#E97D43}
    .fil0 {fill:#ECB33C}
    .fil1 {fill:#ECCBB9}
    .fil10 {fill:#ED8B55}
    .fil5 {fill:#ED9818}
    .fil9 {fill:#F1AF95}
    .fil2 {fill:#F9AA29}
   ]]>
  </style>
 </defs>
 <g id="Layer_x0020_1">
  <metadata id="CorelCorpID_0Corel-Layer"/>
  <path class="fil0" d="M15321 15528c-61,199 -99,447 -178,643l-70 209c13,61 -59,231 -76,298 -26,107 -51,203 -81,301 -14,43 -41,106 -48,144 -7,36 -6,51 -16,81 -8,24 -16,45 -23,69l-159 594c-24,94 -16,124 -51,228l-160 686 3489 0c-10,-110 -76,-305 -105,-421 -35,-140 -73,-271 -107,-409 -68,-274 -145,-544 -227,-806 -165,-524 -347,-931 -519,-1420 -14,-41 -9,-71 -44,-84l-401 -39c-60,-2 -144,-11 -200,-16 -254,-23 -541,-54 -795,-66l-195 -34c-19,15 -21,15 -34,42z"/>
  <path class="fil1" d="M25781 11659c-11,20 12,8 -9,16 44,2 25,3 37,11 -18,188 -27,398 -57,584 -25,161 -22,413 -70,565 -137,424 -349,963 -584,1319 -131,197 -122,174 -213,422 -55,147 -120,326 -148,487 -27,156 -81,420 -63,574l-1609 -45c-10,16 -46,102 -56,127 -37,60 -397,1409 -425,1511 -34,125 -380,1440 -390,1551l3459 0c-23,-217 -353,-1451 -413,-1654 -159,-544 -320,-926 -510,-1429 -5,-13 -13,-35 -20,-47 -18,-28 -12,-5 -28,-36 6,-367 106,-759 224,-1058 30,-79 59,-157 91,-231 35,-81 80,-128 126,-196 78,-116 161,-277 225,-410 100,-210 303,-683 361,-918 36,-144 47,-407 65,-570 15,-132 63,-460 52,-575l-45 2z"/>
  <path class="fil2" d="M18386 18781l3257 0c-9,-106 -343,-1443 -375,-1561 -45,-173 -389,-1289 -471,-1466l-2 -24 -30 -37 -73 -1 -189 -10c-24,-2 -30,-7 -51,-10l-418 -24c-104,2 -199,-19 -282,-18 -66,2 -128,-10 -184,-8 -134,4 -257,-16 -386,-16l14 -24c1,-3 1,-5 2,-8l-20 -485c0,-55 -10,-48 -14,-92 -5,-69 -28,-142 -30,-191l-2 -45 2 4c-19,53 16,339 25,396 11,75 18,342 13,420 -15,18 -19,13 -32,36 -21,37 -34,101 -48,136l-108 390c-21,66 -31,130 -50,197 -20,70 -33,126 -50,204 -9,40 -14,61 -27,99 -12,36 -10,64 -20,100l-101 396c-50,215 -342,1521 -350,1642z"/>
  <path class="fil3" d="M22402 12014l41 527c23,51 24,141 35,201 11,64 24,126 42,186 37,120 76,227 115,344 108,327 233,723 348,1039 110,300 100,500 99,830l-17 451 1609 45c-18,-154 36,-418 63,-574 28,-161 93,-340 148,-487 91,-248 82,-225 213,-422 235,-356 447,-895 584,-1319 48,-152 45,-404 70,-565 30,-186 39,-396 57,-584 -12,-8 7,-9 -37,-11 21,-8 -2,4 9,-16l-6 -3 -25 5 -279 16c-26,-15 -11,-22 -9,-109l20 -360c-12,53 -22,276 -27,353 -4,52 8,77 -20,113 -20,26 -14,0 -22,45 -2,17 -3,32 -5,52 -4,41 -7,74 -9,119 -1,30 -11,205 -29,232 16,51 -1,175 -17,223l-232 491c-7,48 -74,170 -100,227 -19,41 -38,77 -56,114 -16,33 -33,79 -52,106 -45,109 -104,227 -157,336 -61,123 -103,232 -201,284 -26,33 -239,186 -294,201 -21,23 -152,85 -192,89 -63,48 -152,-24 -196,-52 -42,-28 -137,-83 -156,-113 -16,-18 -20,-26 -34,-44l-72 -81c-17,-22 -21,-18 -38,-37 -13,-13 -21,-28 -33,-44 -31,-40 -73,-45 -105,-119 -24,-16 -72,-78 -93,-122 -115,-236 -381,-857 -439,-1065 -40,-333 -68,-679 -86,-1017l-92 0c-19,-215 -54,-447 -69,-651 -3,-38 -8,-71 -8,-111 -1,-65 9,-44 35,-80 -25,11 -19,12 -47,22 -8,148 20,278 32,422 11,135 38,270 38,408 -82,-1 -256,22 -272,20 -3,-1 -6,-2 -8,-2l-17 -12c-14,-50 -4,-108 -13,-177l-22 -372c-3,-211 -2,-161 -82,-300l-225 -350c21,65 259,399 279,483 21,90 5,373 24,490 12,74 22,154 16,236 -12,171 15,321 16,489z"/>
  <path class="fil4" d="M19393 11739l-76 23c-32,23 -75,29 -101,58 45,3 12,-5 56,-12 -7,4 -22,-1 -19,37 1,19 30,25 -1,22l-22 -9c-1,-3 -5,-2 -7,-3 -5,48 -9,4 -23,43 17,13 7,10 20,8 11,-3 6,-14 27,2l13 11c1,1 3,3 3,4 34,43 -7,41 -1,67 8,34 3,9 14,19l33 -51c0,47 -12,41 -22,129 -1,8 3,11 -21,29 0,0 -14,9 -15,10 8,22 0,6 13,14l13 3c-15,56 0,51 -2,119l18 0c1,34 -5,35 -5,59 0,70 5,53 9,96l-16 163c-9,49 -6,57 -23,98 48,32 32,30 34,100 -9,3 -1,0 -8,0 -6,0 1,-3 -9,0 -1,79 -29,-22 -17,136 -1,0 -3,0 -3,0l-23 8c3,59 5,93 -42,111 12,-24 20,-27 27,-52 -30,4 -20,5 -29,8 -23,5 -27,30 -23,52 -30,-7 -7,-6 -40,-9 -2,34 -10,35 -10,38 -1,1 -1,3 -1,4 -2,28 8,11 10,51 -10,4 6,19 -18,-18l-5 13c-17,30 2,15 -22,24 -18,-45 12,-15 -6,-52 -20,30 -24,-7 -26,93 -40,-19 12,2 -18,-15l-30 -3c-12,1 1,-6 -12,1l-7 59c-2,1 -4,1 -5,1l-16 7c-1,1 -3,2 -4,3 -1,0 -3,2 -4,2 0,1 -3,2 -3,3 -1,0 -3,2 -4,2 -24,16 -8,-18 -22,35l-19 -29c-12,18 -10,20 -9,43 -31,-27 -7,-14 -49,-8l-25 -39c0,-3 -2,-3 -4,-5 -31,51 -10,26 -26,26l-31 6c-1,0 -3,1 -4,2 -1,0 -3,1 -5,1l-53 21c-24,3 0,21 -15,-4 -13,11 -16,18 -22,15 -46,17 -69,53 -121,63 -31,-12 -42,-30 -64,-53 -34,-47 -67,-78 -90,-149 -9,-27 -23,-78 -27,-99 -11,-47 6,-82 -42,-81 0,33 -37,86 -50,169 -11,67 -5,140 -29,198 -49,-16 -69,-79 -81,-135 -15,-75 0,-159 -32,-202 -33,21 -43,63 -63,103 -90,180 -90,469 24,660 71,119 69,95 130,157l17 19c1,1 3,3 5,5 23,58 -82,366 158,584 132,119 109,46 169,85 -5,66 -91,72 8,153 40,33 100,84 163,80 185,-13 325,-99 385,-110 26,-44 34,-31 99,-71 79,-50 160,-104 228,-170 20,-19 17,-27 47,-32l7 66c-2,100 -40,152 -76,225l-56 105c-16,31 -35,59 -52,86l52 -27c2,-24 18,-52 31,-74l112 -240c17,73 0,8 -12,70 2,-1 4,-7 5,-5l18 -20c10,-12 18,-20 19,-39 2,1 5,1 6,5l17 12c27,14 34,-5 59,-23l-32 0c10,-24 25,-31 41,-49 2,-3 14,-17 15,-18 40,5 22,3 31,20l8 -29c1,-1 1,-4 2,-5 0,-1 0,-4 1,-6 24,21 21,57 15,88 1,-2 2,-7 3,-6l6 -12c14,-18 -6,-9 21,-19 4,62 7,15 -8,69 33,-17 21,-29 69,-41 51,-50 69,-53 91,-83 15,-21 26,-30 38,-47 157,-210 196,-446 183,-709 -3,-64 3,-38 46,-95l63 -82c14,-43 50,-88 72,-139 23,-55 25,-109 41,-170 -2,-167 37,-334 56,-495 12,-105 34,-121 63,-215 9,-30 62,-183 75,-195 7,-69 57,-179 78,-254 13,-47 24,-88 36,-133 13,-49 30,-92 1,-129 -71,-52 -155,-94 -253,-127 -43,-14 -101,-28 -147,-39 -152,-37 -371,-33 -523,-19 -128,11 -292,52 -323,54z"/>
  <path class="fil5" d="M21105 11252l-59 20c-25,189 86,850 12,930 2,47 -59,269 -75,329 -14,50 -31,109 -48,156 -13,38 -15,28 -26,72 -26,114 -226,592 -280,629 -40,107 -257,320 -366,361l-19 15c-1,1 -3,3 -5,5l31 17c-35,62 -22,123 -24,212l-22 163c0,2 -1,5 -2,7l-5 47c-7,35 5,-6 -6,16 -1,2 -2,4 -3,5l-10 17c-22,49 -52,100 -64,146 -15,58 -5,23 -38,73 -1,2 -2,4 -3,5l-14 19c0,1 -2,3 -2,4 -32,44 -3,5 -46,40l-43 52c-28,28 -37,11 -62,57l-21 29c-77,76 -39,-8 -123,71 -7,6 -4,4 -14,12l-51 42c-11,11 -3,4 -13,12 -2,2 -8,6 -10,7 -20,14 9,-5 -10,7l-120 51 -33 -10c14,-42 11,-21 43,-42 17,-12 7,-4 20,-20l15 -22c-23,18 -29,23 -59,39 -26,14 -33,23 -60,40 -33,22 -99,51 -121,73l-52 27c17,-27 36,-55 52,-86l56 -105c36,-73 74,-125 76,-225 -14,39 -5,12 -15,23l-136 95c-40,19 -38,51 -158,104l-40 20c-2,1 -4,3 -6,4l-12 11c2,49 25,122 30,191 4,44 14,37 14,92l20 485c-1,3 -1,5 -2,8l-14 24c129,0 252,20 386,16 56,-2 118,10 184,8 83,-1 178,20 282,18l418 24c21,3 27,8 51,10l189 10 15 -96c-35,-61 91,-462 119,-541 57,-164 118,-332 180,-496 156,-411 388,-1115 489,-1553 20,-86 46,-184 70,-268 84,-295 86,-285 54,-610 -10,-99 -17,-207 -25,-308 -8,-103 -18,-213 -27,-313l-21 -304c-5,-17 -2,-11 -10,-22l-341 48c-35,7 -71,25 -90,23z"/>
  <path class="fil6" d="M17285 12280c-16,22 -54,103 -67,134l-72 135c0,25 -52,134 -74,160 -12,15 1,3 -16,15 4,33 -105,258 -126,307l-72 165c-27,88 -79,192 -117,283 -19,47 -37,90 -62,132 -24,39 -62,85 -77,117 8,11 10,-20 6,15 -109,68 -20,156 34,221 64,79 101,105 178,172 36,3 15,-1 38,17l8 9c37,31 44,16 50,77 -196,139 -511,-33 -704,-112 -7,-3 -19,-8 -24,-11 -38,-16 -80,-54 -91,-29 -8,17 -7,5 5,17l17 10c1,-2 4,1 6,2l13 57c20,39 16,-2 33,44 13,35 -8,92 -16,133l-4 14c-1,-2 -2,-5 -3,-7l-15 -47c0,14 2,26 -2,40l-40 54c1,-34 11,-79 -11,-105 -11,39 1,77 -13,91 -17,-25 -12,-55 -26,-80 -1,2 -2,5 -2,6 -1,1 -2,5 -3,6 0,2 -2,4 -2,6l-21 22c0,-1 -3,2 -6,3l3 63c-25,-9 -20,-15 -34,-35l-7 9c-7,13 -9,22 0,45 7,19 41,31 52,58 25,62 -43,32 -42,65 0,25 1,10 22,15 -24,20 -21,43 -20,78l6 -12c8,-14 5,-17 22,-25 -1,37 5,35 6,71l36 -36c-1,17 -2,25 0,42l2 39c0,1 -1,4 -1,6 -1,8 0,26 0,27 1,43 -40,49 -19,98 -61,-2 -3,-12 -34,-10 -1,2 -2,5 -3,7 0,1 -1,4 -2,6 0,2 -1,5 -1,7l-11 75c56,-5 -7,-8 52,-19 9,23 -2,2 10,15l14 12c-1,43 -5,47 -25,78 -2,-2 -3,-4 -4,-5l-34 -43c-20,-24 -18,-45 -30,-73 -1,2 -1,5 -2,7 -12,22 -6,23 -26,31 -7,-26 -6,-22 -32,-29l10 60c-28,26 -14,5 -31,17 -4,66 9,150 5,229 -19,-7 -14,-15 -28,-21 -32,-13 -32,36 -29,51l21 -35c0,-3 2,-4 3,-6 12,32 -1,25 3,57l21 -30 14 21c1,2 9,23 10,25l2 37c-20,-6 -15,-15 -26,-32 -29,39 16,64 -49,98 -36,18 -10,16 -58,8 -33,-5 -31,10 -96,9 -11,15 -36,46 -51,46 2,-2 12,16 -2,-6 -26,-39 -70,-21 -93,-30 -7,-3 -2,21 -10,-7 -1,-2 -3,-3 -5,-4l-17 35c-38,-9 -53,3 -87,-9l-17 33c-16,20 -6,12 -40,20l195 34c254,12 541,43 795,66 56,5 140,14 200,16l401 39c-7,-112 167,-632 208,-769 37,-126 64,-267 88,-401 30,-175 68,-217 130,-353 204,-443 354,-961 467,-1485 2,-79 73,-228 100,-304 47,-130 22,-210 1,-345 -18,-121 -39,-234 -57,-351l-62 -339 -92 19c-113,21 -86,-7 -243,11 -43,5 -99,2 -144,4 -17,292 28,507 15,773 -2,44 -39,164 -72,179z"/>
  <path class="fil7" d="M21708 13840l88 20c-31,32 -361,138 -278,451 80,298 408,160 517,145 -33,47 -94,74 -143,186 -68,154 -51,399 157,443 112,23 208,-22 297,-26 -21,81 -55,147 -24,253 46,155 198,260 362,223 77,-18 159,-88 194,-95 9,109 57,242 131,279 10,-25 46,-111 56,-127l17 -451c1,-330 11,-530 -99,-830 -115,-316 -240,-712 -348,-1039 -39,-117 -78,-224 -115,-344 -18,-60 -31,-122 -42,-186 -11,-60 -12,-150 -35,-201 -128,85 -138,256 -62,424 -41,-10 -98,-81 -229,-107 -229,-46 -341,199 -275,358 41,98 97,125 147,187 -34,-5 -71,-30 -112,-43 -49,-15 -84,-21 -139,-19 -242,6 -288,213 -226,350 47,107 125,107 161,149z"/>
  <path class="fil6 str0" d="M14558 11824c2,90 18,154 22,234 2,46 4,75 12,114 6,28 10,81 17,105 25,45 58,341 74,419 23,110 41,79 50,192 10,141 317,1130 391,1358 62,194 61,166 114,386 34,141 177,713 157,834l17 -33c34,12 49,0 87,9l17 -35c2,1 4,2 5,4 8,28 3,4 10,7 23,9 67,-9 93,30 14,22 4,4 2,6 15,0 40,-31 51,-46 65,1 63,-14 96,-9 48,8 22,10 58,-8 65,-34 20,-59 49,-98 11,17 6,26 26,32l-2 -37c-1,-2 -9,-23 -10,-25l-14 -21 -21 30c-4,-32 9,-25 -3,-57 -1,2 -3,3 -3,6l-21 35c-3,-15 -3,-64 29,-51 14,6 9,14 28,21 4,-79 -9,-163 -5,-229 17,-12 3,9 31,-17l-10 -60c26,7 25,3 32,29 20,-8 14,-9 26,-31 1,-2 1,-5 2,-7 12,28 10,49 30,73l34 43c1,1 2,3 4,5 20,-31 24,-35 25,-78l-14 -12c-12,-13 -1,8 -10,-15 -59,11 4,14 -52,19l11 -75c0,-2 1,-5 1,-7 1,-2 2,-5 2,-6 1,-2 2,-5 3,-7 31,-2 -27,8 34,10 -21,-49 20,-55 19,-98 0,-1 -1,-19 0,-27 0,-2 1,-5 1,-6l-2 -39c-2,-17 -1,-25 0,-42l-36 36c-1,-36 -7,-34 -6,-71 -17,8 -14,11 -22,25l-6 12c-1,-35 -4,-58 20,-78 -21,-5 -22,10 -22,-15 -1,-33 67,-3 42,-65 -11,-27 -45,-39 -52,-58 -9,-23 -7,-32 0,-45l7 -9c14,20 9,26 34,35l-3 -63c3,-1 6,-4 6,-3l21 -22c0,-2 2,-4 2,-6 1,-1 2,-5 3,-6 0,-1 1,-4 2,-6 14,25 9,55 26,80 14,-14 2,-52 13,-91 22,26 12,71 11,105l40 -54c4,-14 2,-26 2,-40l15 47c1,2 2,5 3,7l4 -14c8,-41 29,-98 16,-133 -17,-46 -13,-5 -33,-44l-13 -57c-2,-1 -5,-4 -6,-2l-17 -10c-12,-12 -13,0 -5,-17 11,-25 53,13 91,29 5,3 17,8 24,11 193,79 508,251 704,112 -6,-61 -13,-46 -50,-77l-8 -9c-23,-18 -2,-14 -38,-17 -4,14 -2,16 36,45 23,18 30,15 36,45 -30,29 -56,32 -114,32 -187,0 -236,-12 -416,-101l-228 -101c-41,-20 -99,-55 -113,-53 -81,-30 -115,-72 -150,-140l-164 -385c-72,-165 -190,-433 -240,-582l-148 -390 -87 -217c-66,-99 -123,-811 -111,-982 -24,-8 -54,-10 -86,-13l-18 -2 -427 -11c105,-10 354,0 444,31 -3,1 -6,2 -8,3l-43 16c50,1 13,-4 25,25l-25 9c-18,2 -13,1 -17,-9 -7,25 -9,40 -9,76 -17,-6 -60,-1 -25,-34 -1,3 -26,38 -33,29 -2,-2 -6,3 -9,5 -15,-36 -2,-23 0,-25l0 76c19,0 11,-37 8,-59l34 10c37,1 26,-11 51,15 -35,27 -37,12 -44,37 0,0 0,2 0,2 0,0 1,3 1,3 -3,-7 -27,15 5,-7 27,-18 9,-3 10,-3l45 -15c-4,79 -17,2 -17,135 -35,-27 -23,35 -26,-33 -2,25 -8,29 -8,59 -8,-10 -18,16 4,-4l30 -38 19 32c3,27 -25,31 -28,31 -24,3 -1,-3 0,-4 0,10 2,43 0,51l-12 34c0,-1 -3,5 -5,8 -29,-38 -16,-68 -16,-68 -13,-64 23,58 -17,-29 -13,-30 -5,-72 -6,-18 -1,22 -17,38 -17,38l-6 19c-12,42 6,-6 -5,24 -32,-25 -25,38 -26,-42 -10,26 -24,61 -45,79l-41 63c0,3 -13,61 -23,47 -2,-2 -6,4 -9,5 -7,-35 -22,-41 8,-59 -30,-6 -31,-32 -34,-68l9 0c0,47 8,59 8,111l-15 -17c-2,-2 -4,-4 -6,-7 -2,-2 -3,-4 -5,-6 -1,-2 -5,-6 -6,-9 0,-2 0,-3 -1,-4 32,-29 12,19 -17,43l-17 -73c0,-2 -2,-4 -3,-5 0,-2 -2,-4 -3,-5 -6,-13 -14,-11 -3,-19 2,2 4,9 4,12l3 13c2,12 1,19 3,30 10,48 7,-27 13,45 2,23 17,8 -32,53 -2,1 -4,3 -6,5l-44 -31c0,21 -9,67 -17,85 -1,-34 -12,-106 -27,-125z"/>
  <path class="fil3" d="M14360 14803c-3,13 -155,234 7,386 47,45 111,69 192,72 114,5 147,-41 218,-42 4,96 -12,144 28,227 28,57 76,106 128,133 144,77 275,7 388,-51 13,-27 15,-27 34,-42 34,-8 24,0 40,-20 20,-121 -123,-693 -157,-834 -53,-220 -52,-192 -114,-386 -74,-228 -381,-1217 -391,-1358 -9,-113 -27,-82 -50,-192 -16,-78 -49,-374 -74,-419 6,94 66,466 91,567 11,43 41,128 37,171 -19,13 -71,20 -137,58 -41,25 -67,59 -90,104 -87,169 5,287 -21,326 -27,27 -110,51 -158,97 -100,94 -162,229 -92,363 35,66 80,91 106,136 -54,59 -257,108 -251,356 6,254 295,259 326,279 -12,28 -34,53 -60,69z"/>
  <path class="fil7 str1" d="M23568 12355c-15,51 -70,172 -52,223 -5,-33 5,-89 -11,-107 -34,-12 -11,3 -30,-25l-55 -98c-54,-82 -191,-112 -271,-47 -56,45 -31,24 -77,82 7,13 16,7 25,34 -42,-3 -40,-9 -53,37 -13,43 -10,97 4,135l167 468c6,14 9,12 16,36 9,32 0,20 17,49l132 341c15,30 8,29 14,65l46 140c0,6 21,-12 -5,15 32,74 74,79 105,119 12,16 20,31 33,44 17,19 21,15 38,37l72 81c14,18 18,26 34,44 30,-18 10,2 8,-89 0,-41 3,-70 6,-102l32 -610c0,-64 -10,-194 12,-225l12 -13c80,-88 181,-259 314,-284 77,-22 184,51 220,99 83,113 92,439 66,598 -8,50 -22,96 -38,140 -19,51 -45,87 -60,123 49,1 117,-40 145,-62 58,-46 104,-150 96,-224 -4,-36 -20,-57 -32,-81 -22,-42 -20,-27 -45,-57 -19,-22 -27,-46 -26,-82 32,-25 224,-72 212,-262 -5,-94 -85,-181 -151,-199 -48,-13 -116,7 -99,-47 5,-15 4,-11 10,-20 -1,-120 18,-116 -28,-228 -37,-60 -115,-101 -211,-75 -80,22 -124,85 -155,151 -11,-36 -17,-92 -29,-132 -32,-28 -71,-143 -213,-137 -126,6 -178,131 -195,145z"/>
  <path class="fil5" d="M18656 13294l4 15c6,3 9,-4 22,-15 185,-137 230,-292 283,-590 32,-180 54,-382 93,-558 13,-61 35,-120 42,-183 -5,-119 -15,-248 -19,-370 -3,-117 1,-255 -12,-370 -41,-10 -89,-19 -120,-27 -33,-10 0,-19 -71,-23 -43,-3 -47,-11 -79,-15 -42,-5 -314,-13 -341,5 -37,25 -12,796 -3,879 12,115 29,229 34,338 6,120 11,223 27,339 21,150 58,307 107,449 8,22 14,45 24,70 33,81 16,46 9,56z"/>
  <path class="fil8" d="M17282 12263l3 17c33,-15 70,-135 72,-179 13,-266 -32,-481 -15,-773 45,-2 101,1 144,-4 157,-18 130,10 243,-11l92 -19 62 339c18,117 39,230 57,351 21,135 46,215 -1,345 -27,76 -98,225 -100,304 33,-98 69,-190 104,-281 58,-152 36,-176 13,-336 -34,-234 -60,-537 -134,-756l-98 -591c-9,-83 45,-237 69,-320 22,-74 83,-253 85,-313 -67,-49 -182,-92 -268,-130 -87,-39 -191,-79 -273,-121 -63,-19 -255,-121 -311,-111 -123,22 -62,220 -67,330 -17,7 -50,17 -67,28l-162 106c0,37 29,98 42,132 21,56 31,69 78,98 72,45 147,86 222,125 287,151 253,74 255,448 2,299 -7,743 18,1034 5,55 7,125 -6,171 -7,26 -15,35 -24,58 -10,24 -14,43 -33,59z"/>
  <path class="fil8" d="M16021 14003c14,-2 72,33 113,53l228 101c180,89 229,101 416,101 58,0 84,-3 114,-32 -6,-30 -13,-27 -36,-45 -38,-29 -40,-31 -36,-45 -77,-67 -114,-93 -178,-172 -54,-65 -143,-153 -34,-221 4,-35 2,-4 -6,-15 -33,22 -31,35 -61,49 -21,-51 -37,-117 -38,-177 8,-8 7,-6 16,-13l29 -20c-18,-24 14,-44 25,-60 53,-78 78,-305 78,-407 0,-89 -1,-185 -17,-275 -3,-21 -11,-61 -15,-84 -5,-35 2,-66 -5,-95l-129 -160c-19,-16 -2,-16 -66,-38 -25,-9 -39,-19 -71,-20 -2,2 -4,3 -6,4l-126 122 -155 284c-1,2 -2,4 -3,6 -1,1 -2,3 -3,5l-10 31c-20,67 -39,119 -49,196 -12,89 -28,732 0,844 8,35 35,54 25,83z"/>
  <path class="fil9" d="M20769 10284c39,0 171,82 218,106 47,25 71,20 78,81 13,103 46,714 40,781 19,2 55,-16 90,-23l341 -48c8,11 5,5 10,22l21 304c9,100 19,210 27,313 8,101 15,209 25,308 32,325 30,315 -54,610 -24,84 -50,182 -70,268 -101,438 -333,1142 -489,1553 -62,164 -123,332 -180,496 -28,79 -154,480 -119,541 55,-405 198,-710 318,-1051 118,-338 234,-672 341,-1022 30,-97 277,-981 283,-1083 8,-140 -76,-1032 -90,-1279l-62 7c-40,-219 -64,-438 -107,-654 -22,-113 28,-209 60,-312 30,-96 62,-200 92,-287l-7 -10 -478 -170c-54,-19 -196,-85 -250,-39 -57,48 -22,192 -23,272 -44,17 -129,71 -159,101 1,36 27,107 44,130 30,41 54,45 75,60l25 25z"/>
  <path class="fil9" d="M18442 10123c19,29 147,347 153,396 10,76 -21,175 -28,245 -10,84 -21,167 -28,253 -3,37 7,109 -21,123 -42,20 -78,-21 -84,47 -19,219 -11,614 -1,826 26,118 39,352 45,494 4,112 37,391 72,475l23 106 43 105c11,29 26,72 40,101 7,-10 24,25 -9,-56 -10,-25 -16,-48 -24,-70 -49,-142 -86,-299 -107,-449 -16,-116 -21,-219 -27,-339 -5,-109 -22,-223 -34,-338 -9,-83 -34,-854 3,-879 27,-18 299,-10 341,-5 32,4 36,12 79,15 71,4 38,13 71,23l-5 -704 247 -185c35,-26 98,-66 123,-98 30,-37 46,-132 32,-176 -31,-13 -170,-73 -188,-99 -4,-100 36,-238 -94,-232 -62,3 -629,288 -654,309l32 112z"/>
  <path class="fil4 str2" d="M14271 9916c29,12 5,-6 28,24 91,120 143,216 216,344l83 109c-6,-16 -21,-25 6,-37 27,-13 -13,8 38,-1 8,-2 -8,-18 47,8 15,7 -15,-3 10,5 1,0 4,1 5,1 45,9 -8,-9 15,-4 39,70 52,15 68,77 22,-13 21,-26 26,-33 0,23 2,44 9,59 12,25 95,52 95,116l-3 160c-2,30 -10,10 20,43 -14,33 6,7 -27,26 30,9 21,6 35,26l-35 19c15,27 2,33 2,65 40,-10 -4,-3 23,-15l20 -3c0,2 0,3 0,5l32 156c29,83 -10,159 12,191 12,17 13,11 16,16 17,25 20,-11 5,19l18 2c-13,-34 -72,-734 -89,-846 -20,-127 -32,-95 122,-217 30,-24 72,-71 116,-83 14,-31 101,-94 129,-121 28,-27 37,-36 42,-86 3,-37 6,-85 -2,-121 -30,-29 -68,-40 -109,-53 -23,-7 -40,-14 -64,-21 -52,-15 -43,-14 -43,-28 -15,-19 -6,3 -13,-30 -1,-7 -1,-18 -1,-25l-10 -141c-41,-229 -243,-70 -362,1 -170,103 -345,202 -505,308 -5,42 3,63 25,85z"/>
  <path class="fil10" d="M22067 10316l225 350c80,139 79,89 82,300l22 372c9,69 -1,127 13,177l17 12c2,0 5,1 8,2 16,2 190,-21 272,-20 0,-138 -27,-273 -38,-408 -12,-144 -40,-274 -32,-422 28,-10 22,-11 47,-22 49,-33 100,-100 135,-136 51,-51 91,-85 139,-141 18,-60 34,-74 25,-149 -39,-29 -84,-42 -135,-60 -90,-31 -78,-19 -96,-114 -1,-84 -21,-137 -72,-176 -79,0 -136,41 -177,79 -35,34 -132,88 -151,103 -19,15 -12,15 -36,30 -120,78 -139,97 -255,186l7 37z"/>
  <path class="fil5" d="M24101 12705c-23,60 -50,26 -133,125 -17,22 -7,16 -21,38l-86 109c-61,125 1,262 -24,465l-20 488c0,129 18,173 138,238 45,24 57,18 114,25 40,-4 171,-66 192,-89 -19,-127 -59,-258 -53,-394 21,-17 68,-39 81,-45 15,-36 41,-72 60,-123 16,-44 30,-90 38,-140 26,-159 17,-485 -66,-598 -36,-48 -143,-121 -220,-99z"/>
  <path class="fil3" d="M15742 12310l-8 101c-108,-47 -150,-65 -285,-31 16,21 -23,18 22,17 -14,1 -2,13 11,51 16,47 24,38 30,73 6,28 -3,4 10,31 8,19 7,13 16,36 12,28 15,55 28,81 37,75 15,37 42,111l50 120c12,29 18,56 29,82 2,0 24,-21 47,68l50 101c-6,3 -2,3 -24,-4 15,89 -15,32 49,161l33 79c54,195 109,252 114,451 4,-230 -30,-676 31,-870 37,-116 124,-338 212,-439 18,-20 24,-10 65,-61 32,-39 34,-28 84,-40 32,1 46,11 71,20 64,22 47,22 66,38l129 160c7,29 0,60 5,95 4,23 12,63 15,84 16,90 17,186 17,275 0,102 -25,329 -78,407 -11,16 -43,36 -25,60 116,-54 132,-420 125,-575 -4,-97 -40,-234 -34,-314 10,-132 24,-189 -15,-316 -46,-87 -82,-149 -181,-181 -117,-38 -209,0 -255,79l-20 -44c-52,-62 -133,-125 -255,-91 -51,14 -83,37 -110,68 -43,47 -38,87 -61,117z"/>
  <path class="fil11" d="M25482 11208l-20 360c-2,87 -17,94 9,109l27 -465c11,-122 25,-235 26,-356 1,-88 -20,-58 -26,-110l38 -6c1,-1 3,-1 5,-2 -4,-43 -13,-23 -19,-41 -12,-35 17,-27 48,-42 21,-11 -25,3 11,-9 5,19 4,17 9,34 3,13 -1,1 3,14 1,2 2,4 2,6l5 12c14,-22 12,-34 2,-57 42,-24 18,21 36,-17 11,-24 2,-9 -12,-44 38,9 193,10 240,4 34,-3 42,-12 66,-23l-58 99c-114,192 -98,148 -95,377l-29 610 25 -5c-6,-98 16,-252 20,-359 4,-133 4,-266 4,-399 0,-73 21,-87 52,-138 25,-41 49,-79 74,-121 33,-56 138,-198 143,-257 -13,-44 -444,-275 -497,-323 -48,-23 -157,-107 -214,-47 -50,52 -38,167 -49,252 -54,27 -127,39 -183,67 -4,45 2,108 13,149 18,71 189,188 249,234 138,105 124,75 120,202 -3,69 -12,234 -25,292z"/>
  <path class="fil12 str2" d="M19216 11820c-27,20 -40,46 -59,78 -9,13 -19,29 -28,41 -15,19 -8,18 -29,24 -7,63 -29,122 -42,183 -39,176 -61,378 -93,558 -53,298 -98,453 -283,590 15,25 -9,7 15,4l53 -21c2,0 4,-1 5,-1 1,-1 3,-2 4,-2l31 -6c16,0 -5,25 26,-26 2,2 4,2 4,5l25 39c42,-6 18,-19 49,8 -1,-23 -3,-25 9,-43l19 29c14,-53 -2,-19 22,-35 1,0 3,-2 4,-2 0,-1 3,-2 3,-3 1,0 3,-2 4,-2 1,-1 3,-2 4,-3l16 -7c1,0 3,0 5,-1l7 -59c13,-7 0,0 12,-1l30 3c30,17 -22,-4 18,15 2,-100 6,-63 26,-93 18,37 -12,7 6,52 24,-9 5,6 22,-24l5 -13c24,37 8,22 18,18 -2,-40 -12,-23 -10,-51 0,-1 0,-3 1,-4 0,-3 8,-4 10,-38 33,3 10,2 40,9 -4,-22 0,-47 23,-52 9,-3 -1,-4 29,-8 -7,25 -15,28 -27,52 47,-18 45,-52 42,-111l23 -8c0,0 2,0 3,0 -12,-158 16,-57 17,-136 10,-3 3,0 9,0 7,0 -1,3 8,0 -2,-70 14,-68 -34,-100 17,-41 14,-49 23,-98l16 -163c-4,-43 -9,-26 -9,-96 0,-24 6,-25 5,-59l-18 0c2,-68 -13,-63 2,-119l-13 -3c-13,-8 -5,8 -13,-14 1,-1 15,-10 15,-10 24,-18 20,-21 21,-29 10,-88 22,-82 22,-129l-33 51c-11,-10 -6,15 -14,-19 -6,-26 35,-24 1,-67 0,-1 -2,-3 -3,-4l-13 -11c-21,-16 -16,-5 -27,-2 -13,2 -3,5 -20,-8 14,-39 18,5 23,-43 2,1 6,0 7,3l22 9c31,3 2,-3 1,-22 -3,-38 12,-33 19,-37 -44,7 -11,15 -56,12z"/>
  <path class="fil4 str2" d="M14584 11268l6 13 427 11c15,-30 12,6 -5,-19 -3,-5 -4,1 -16,-16 -22,-32 17,-108 -12,-191l-32 -156c0,-2 0,-3 0,-5l-20 3c-27,12 17,5 -23,15 0,-32 13,-38 -2,-65l35 -19c-14,-20 -5,-17 -35,-26 33,-19 13,7 27,-26 -30,-33 -22,-13 -20,-43l3 -160c0,-64 -83,-91 -95,-116 -7,-15 -9,-36 -9,-59 -5,7 -4,20 -26,33 -16,-62 -29,-7 -68,-77 -23,-5 30,13 -15,4 -1,0 -4,-1 -5,-1 -25,-8 5,2 -10,-5 -55,-26 -39,-10 -47,-8 -51,9 -11,-12 -38,1 -27,12 -12,21 -6,37l-83 -109c-73,-128 -125,-224 -216,-344 -23,-30 1,-12 -28,-24 18,51 127,202 164,261 28,47 52,87 80,132 25,40 66,84 69,132l0 827z"/>
  <path class="fil10" d="M25471 11677l279 -16 29 -610c-3,-229 -19,-185 95,-377l58 -99c-24,11 -32,20 -66,23 -47,6 -202,5 -240,-4 14,35 23,20 12,44 -18,38 6,-7 -36,17 10,23 12,35 -2,57l-5 -12c0,-2 -1,-4 -2,-6 -4,-13 0,-1 -3,-14 -5,-17 -4,-15 -9,-34 -36,12 10,-2 -11,9 -31,15 -60,7 -48,42 6,18 15,-2 19,41 -2,1 -4,1 -5,2l-38 6c6,52 27,22 26,110 -1,121 -15,234 -26,356l-27 465z"/>
  <path class="fil6 str0" d="M14558 11824c15,19 26,91 27,125 8,-18 17,-64 17,-85l44 31c2,-2 4,-4 6,-5 49,-45 34,-30 32,-53 -6,-72 -3,3 -13,-45 -2,-11 -1,-18 -3,-30l-3 -13c0,-3 -2,-10 -4,-12 -11,8 -3,6 3,19 1,1 3,3 3,5 1,1 3,3 3,5l17 73c29,-24 49,-72 17,-43 1,1 1,2 1,4 1,3 5,7 6,9 2,2 3,4 5,6 2,3 4,5 6,7l15 17c0,-52 -8,-64 -8,-111l-9 0c3,36 4,62 34,68 -30,18 -15,24 -8,59 3,-1 7,-7 9,-5 10,14 23,-44 23,-47l41 -63c21,-18 35,-53 45,-79 1,80 -6,17 26,42 11,-30 -7,18 5,-24l6 -19c0,0 16,-16 17,-38 1,-54 -7,-12 6,18 40,87 4,-35 17,29 0,0 -13,30 16,68 2,-3 5,-9 5,-8l12 -34c2,-8 0,-41 0,-51 -1,1 -24,7 0,4 3,0 31,-4 28,-31l-19 -32 -30 38c-22,20 -12,-6 -4,4 0,-30 6,-34 8,-59 3,68 -9,6 26,33 0,-133 13,-56 17,-135l-45 15c-1,0 17,-15 -10,3 -32,22 -8,0 -5,7 0,0 -1,-3 -1,-3 0,0 0,-2 0,-2 7,-25 9,-10 44,-37 -25,-26 -14,-14 -51,-15l-34 -10c3,22 11,59 -8,59l0 -76c-2,2 -15,-11 0,25 3,-2 7,-7 9,-5 7,9 32,-26 33,-29 -35,33 8,28 25,34 0,-36 2,-51 9,-76 4,10 -1,11 17,9l25 -9c-12,-29 25,-24 -25,-25l43 -16c2,-1 5,-2 8,-3 -90,-31 -339,-41 -444,-31l-6 -13 -65 5c-6,52 7,221 13,279 10,92 23,177 26,272z"/>
  <path class="fil13" d="M15319 12506l148 390c50,149 168,417 240,582l164 385c35,68 69,110 150,140 10,-29 -17,-48 -25,-83 -28,-112 -12,-755 0,-844 10,-77 29,-129 49,-196l10 -31c1,-2 2,-4 3,-5 1,-2 2,-4 3,-6l155 -284 126 -122c2,-1 4,-2 6,-4 -50,12 -52,1 -84,40 -41,51 -47,41 -65,61 -88,101 -175,323 -212,439 -61,194 -27,640 -31,870l9 109c-10,-30 -15,-50 -20,-88 -10,-71 -19,-44 -29,-106 -12,-70 -122,-281 -154,-388 -21,-71 -82,-191 -122,-303 -1,-2 -2,-4 -3,-6 -1,-3 -6,-15 -10,-24l-90 -249c-11,-33 -26,-63 -41,-94 -32,-66 -46,-137 -69,-203 -1,-2 -8,-20 -10,-25 -20,-56 7,-22 -4,-55 -21,16 -33,29 -47,53 -16,28 -14,47 -47,47z"/>
  <path class="fil7" d="M23146 12268c-86,99 -92,26 -152,292 -53,-7 -56,-37 -68,-44l-23 0c58,208 324,829 439,1065 21,44 69,106 93,122 26,-27 5,-9 5,-15l-46 -140c-6,-36 1,-35 -14,-65l-132 -341c-17,-29 -8,-17 -17,-49 -7,-24 -10,-22 -16,-36l-167 -468c-14,-38 -17,-92 -4,-135 13,-46 11,-40 53,-37 -9,-27 -18,-21 -25,-34 46,-58 21,-37 77,-82 80,-65 217,-35 271,47l55 98c19,28 -4,13 30,25 -19,-85 -66,-156 -122,-193 -84,-56 -149,-32 -237,-10z"/>
  <path class="fil14" d="M16800 10277c216,-45 263,-97 493,-4 152,62 117,96 209,65 72,-24 167,-49 236,-62l48 -176c0,-2 0,-5 0,-7 0,-2 0,-5 0,-7l-51 -30c-45,56 -56,135 -96,180 -45,49 -130,32 -189,-32 4,-56 18,-100 30,-153l23 -101c-3,-37 -1,-19 -14,-31 -32,14 -41,88 -49,119 -35,143 -44,153 -152,105 -43,-19 -66,-21 -70,-74 -6,-78 40,-187 32,-250 -34,2 -31,-22 -56,66l-51 169c-32,97 -15,59 -194,135l-149 88z"/>
  <path class="fil14" d="M14602 9695c-25,37 33,126 67,213 8,20 24,53 11,78 -30,51 -142,63 -186,14l-107 -154c-27,9 -33,10 -55,29 21,64 99,178 141,194 34,13 105,19 145,25 75,11 86,24 146,-16 193,-129 281,-134 557,-140 -35,-67 -268,-38 -335,-92 -57,-45 -85,-257 -156,-275 -67,85 173,249 0,328 -170,78 -148,-177 -228,-204z"/>
  <path class="fil15" d="M23717 14028c19,30 114,85 156,113 44,28 133,100 196,52 -57,-7 -69,-1 -114,-25 -120,-65 -138,-109 -138,-238l20 -488c25,-203 -37,-340 24,-465l86 -109c14,-22 4,-16 21,-38 83,-99 110,-65 133,-125 -133,25 -234,196 -314,284l-12 13c-22,31 -12,161 -12,225l-32 610c-3,32 -6,61 -6,102 2,91 22,71 -8,89z"/>
  <path class="fil16" d="M19740 14675c-36,9 -7,-4 -35,23 -14,14 -17,16 -31,28 -20,16 -48,42 -65,60l-15 22c-13,16 -3,8 -20,20 -32,21 -29,0 -43,42l33 10 120 -51c19,-12 -10,7 10,-7 2,-1 8,-5 10,-7 10,-8 2,-1 13,-12l51 -42c10,-8 7,-6 14,-12 84,-79 46,5 123,-71l21 -29c25,-46 34,-29 62,-57l43 -52c43,-35 14,4 46,-40 0,-1 2,-3 2,-4l14 -19c1,-1 2,-3 3,-5 33,-50 23,-15 38,-73 12,-46 42,-97 64,-146l10 -17c1,-1 2,-3 3,-5 11,-22 -1,19 6,-16l5 -47c1,-2 2,-5 2,-7l22 -163c2,-89 -11,-150 24,-212l-31 -17c2,-2 4,-4 5,-5l19 -15c-23,-5 -18,-6 -26,-35 -4,-17 -7,-35 -11,-46 -15,17 -1,-7 -9,19 -8,26 3,19 -13,54 -12,25 -9,-4 -13,36 -5,48 10,149 -11,219 -15,50 -17,103 -29,158l-83 195c-52,71 -36,105 -119,162 -74,50 -155,166 -209,164z"/>
  <path class="fil3 str3" d="M15413 12406c11,33 -16,-1 4,55 2,5 9,23 10,25 23,66 37,137 69,203 15,31 30,61 41,94l90 249c4,9 9,21 10,24 1,2 2,4 3,6 40,112 101,232 122,303 32,107 142,318 154,388 10,62 19,35 29,106 5,38 10,58 20,88l-9 -109c-5,-199 -60,-256 -114,-451l-33 -79c-64,-129 -34,-72 -49,-161 22,7 18,7 24,4l-50 -101c-23,-89 -45,-68 -47,-68 -11,-26 -17,-53 -29,-82l-50 -120c-27,-74 -5,-36 -42,-111 -13,-26 -16,-53 -28,-81 -9,-23 -8,-17 -16,-36 -13,-27 -4,-3 -10,-31 -6,-35 -14,-26 -30,-73 -13,-38 -25,-50 -11,-51 -45,1 -6,4 -22,-17l-36 26z"/>
  <path class="fil15" d="M20330 13291c112,-128 149,-205 191,-395 19,-83 36,-163 39,-253 5,-145 -33,-225 -36,-257 -13,12 -66,165 -75,195 -29,94 -51,110 -63,215 -19,161 -58,328 -56,495z"/>
  <path class="fil17" d="M25173 10475c114,-17 145,-40 267,-7 205,57 137,124 287,122 153,-1 165,13 207,-78 19,-40 39,-63 44,-104l-56 -19c-1,1 -3,4 -5,5 -23,33 -75,137 -97,147 -78,10 -145,-32 -124,-105 27,-98 83,-142 48,-188 -33,19 -18,13 -32,50 -8,19 -16,34 -25,52 -41,91 -45,128 -144,64 -27,-18 -40,-33 -32,-86 8,-54 78,-153 38,-197 -20,14 -8,2 -22,26l-37 89c-10,23 -16,37 -25,59l-17 34c-28,57 -41,43 -148,74 -22,7 -41,15 -62,22 -91,30 -56,27 -65,40z"/>
  <path class="fil15" d="M22383 10285c28,35 43,101 31,155 -26,4 -60,12 -91,6 -63,-10 -127,-122 -130,-144l-51 11c13,55 61,158 119,173 45,11 84,9 130,13 19,1 57,4 75,0 16,-5 10,-4 21,-13 1,-1 3,-3 4,-4 1,-1 3,-3 4,-4l99 -71c158,-102 248,-68 364,-85l-12 -6c-9,-4 -5,-4 -19,-7 -49,-10 -240,-9 -276,-42 -64,-60 -67,-220 -140,-229 -7,87 80,164 69,257 -28,25 -76,56 -129,61 -10,-26 -31,-64 -45,-97l-57 -100c2,46 20,88 34,126z"/>
  <path class="fil13" d="M19796 14616c-14,21 -8,12 -26,29 -20,18 -14,7 -30,30 54,2 135,-114 209,-164 83,-57 67,-91 119,-162l83 -195c12,-55 14,-108 29,-158 21,-70 6,-171 11,-219 4,-40 1,-11 13,-36 16,-35 5,-28 13,-54 8,-26 -6,-2 9,-19l-9 -68 -63 82c-43,57 -49,31 -46,95 13,263 -26,499 -183,709 -12,17 -23,26 -38,47 -22,30 -40,33 -91,83z"/>
  <path class="fil12 str2" d="M19369 14938c22,-22 88,-51 121,-73 27,-17 34,-26 60,-40 30,-16 36,-21 59,-39 17,-18 45,-44 65,-60 14,-12 17,-14 31,-28 28,-27 -1,-14 35,-23 16,-23 10,-12 30,-30 18,-17 12,-8 26,-29 -48,12 -36,24 -69,41 15,-54 12,-7 8,-69 -27,10 -7,1 -21,19l-6 12c-1,-1 -2,4 -3,6 6,-31 9,-67 -15,-88 -1,2 -1,5 -1,6 -1,1 -1,4 -2,5l-8 29c-9,-17 9,-15 -31,-20 -1,1 -13,15 -15,18 -16,18 -31,25 -41,49l32 0c-25,18 -32,37 -59,23l-17 -12c-1,-4 -4,-4 -6,-5 -1,19 -9,27 -19,39l-18 20c-1,-2 -3,4 -5,5 12,-62 29,3 12,-70l-112 240c-13,22 -29,50 -31,74z"/>
  <path class="fil16" d="M19120 14756c-3,15 -5,9 14,9l-2 -4 2 45 12 -11c2,-1 4,-3 6,-4l40 -20c120,-53 118,-85 158,-104l136 -95c10,-11 1,16 15,-23l-7 -66c-30,5 -27,13 -47,32 -68,66 -149,120 -228,170 -65,40 -73,27 -99,71z"/>
  <path class="fil10" d="M22193 10302c3,22 67,134 130,144 31,6 65,-2 91,-6 12,-54 -3,-120 -31,-155 -2,43 4,3 -17,21 -8,-27 12,-25 -48,-15 -29,5 7,1 -24,2 -9,0 -48,-2 -50,-1 -2,0 -17,6 -19,8 -1,1 -2,3 -3,5l-9 18c-11,-23 4,-10 -20,-21z"/>
 </g>
</svg>
